<?xml version="1.0" encoding="UTF-8"?>
<svg version="1.1" xmlns="http://www.w3.org/2000/svg" width="1024" height="1024">
<path d="M0 0 C3.5847586 0.0032918 7.16949443 -0.00503668 10.75424555 -0.01181835 C17.02723825 -0.02208823 23.3002001 -0.0249674 29.57320038 -0.02290613 C38.90209366 -0.01984824 48.23095297 -0.02819759 57.55983963 -0.03865538 C75.19472692 -0.05797261 92.82960256 -0.06362278 110.46449919 -0.06476949 C124.08810421 -0.06568957 137.71170468 -0.06981142 151.33530823 -0.07617074 C155.2608948 -0.07796592 159.18648138 -0.07974555 163.11206797 -0.0815205 C164.08806731 -0.0819626 165.06406665 -0.08240469 166.06964173 -0.08286019 C193.51457154 -0.09516473 220.95949976 -0.10306172 248.40443245 -0.10217363 C249.43867088 -0.10214247 250.47290932 -0.10211131 251.53848831 -0.10207921 C256.78008324 -0.101913 262.02167816 -0.10171492 267.26327308 -0.1015098 C268.8246863 -0.10144996 268.8246863 -0.10144996 270.41764323 -0.10138892 C272.52268231 -0.10130804 274.62772138 -0.10122445 276.73276045 -0.10113813 C309.46903169 -0.09991317 342.20526146 -0.11491726 374.94152084 -0.14228326 C411.74765471 -0.17303904 448.55376133 -0.19021361 485.35990885 -0.18835682 C489.28863898 -0.18820757 493.21736911 -0.18811015 497.14609924 -0.18804819 C498.59705296 -0.18801322 498.59705296 -0.18801322 500.07731888 -0.18797755 C515.60933684 -0.18791614 531.14131866 -0.20066016 546.67332589 -0.21791271 C562.29894264 -0.23490957 577.9245068 -0.23681144 593.5501277 -0.22369407 C602.81894251 -0.21633158 612.08759705 -0.21988156 621.35639471 -0.23957875 C627.56486377 -0.2516513 633.77321779 -0.24890769 639.98168175 -0.23463776 C643.50783215 -0.22693544 647.03367436 -0.22514386 650.55980201 -0.24155246 C693.06122271 -0.40060941 734.44162416 9.89880281 767.90978256 37.26933783 C768.4231517 37.6826435 768.93652084 38.09594916 769.46544662 38.52177924 C806.37985908 68.32002536 830.866351 110.45730863 836.69142866 157.838735 C837.12057619 162.61578365 837.04889892 167.40253963 837.04121033 172.19527644 C837.04428928 173.98350668 837.04428928 173.98350668 837.04743043 175.80786279 C837.05210742 179.11420804 837.05232865 182.42049883 837.05065284 185.72684333 C837.04991994 189.32514943 837.0549489 192.92344829 837.05922786 196.52175128 C837.06679876 203.65745689 837.06900046 210.79315502 837.06955691 217.92886423 C837.07047146 226.47680988 837.07714176 235.02474864 837.08390374 243.57269132 C837.09995746 264.23308542 837.10586649 284.89347878 837.11065248 305.553878 C837.11298925 315.33058735 837.11659201 325.10729611 837.12034786 334.88400501 C837.13318335 368.36019035 837.14390211 401.83637537 837.14735046 435.31256312 C837.14757209 437.41371228 837.14779388 439.51486145 837.14801581 441.61601062 C837.14823645 443.72219734 837.14845694 445.82838406 837.14867726 447.93457079 C837.14911981 452.15984795 837.14956693 456.38512512 837.15001694 460.61040228 C837.15012633 461.65802403 837.15023572 462.70564577 837.15034842 463.78501363 C837.15397798 497.74402711 837.16989421 531.70301923 837.1932073 565.66202453 C837.21781822 601.57729042 837.23152391 637.4925441 837.23271838 673.40781867 C837.23288983 677.35256098 837.23310526 681.29730328 837.23335281 685.24204558 C837.23340858 686.21333048 837.23346435 687.18461538 837.23352181 688.18533315 C837.23467121 703.79862815 837.24568388 719.4119012 837.26023987 735.02518879 C837.27462548 750.72761704 837.27783022 766.43001722 837.26979989 782.13245026 C837.26535323 791.45336186 837.26916555 800.77418267 837.2850384 810.0950823 C837.29482472 816.33210619 837.29357546 822.56906682 837.28360217 828.80609019 C837.27823631 832.3527199 837.27741442 835.8991759 837.29011089 839.44579086 C837.34433199 858.09643854 836.58299049 875.9201707 831.15978256 893.89433783 C830.90229233 894.76493842 830.64480209 895.635539 830.37950912 896.53252142 C824.05993825 917.30820551 814.38397238 937.19140629 800.90978256 954.26933783 C800.4861644 954.80719916 800.06254623 955.34506049 799.62609115 955.89922064 C769.76075559 993.34601597 727.12595949 1018.17622031 679.34038539 1024.05098393 C674.56333674 1024.48013146 669.77658076 1024.40845419 664.98384395 1024.4007656 C663.79169046 1024.40281823 662.59953696 1024.40487086 661.37125761 1024.4069857 C658.06491236 1024.41166269 654.75862156 1024.41188392 651.45227706 1024.41020811 C647.85397096 1024.40947521 644.2556721 1024.41450417 640.65736911 1024.41878313 C633.5216635 1024.42635403 626.38596537 1024.42855573 619.25025617 1024.42911218 C610.70231051 1024.43002673 602.15437175 1024.43669703 593.60642907 1024.44345901 C572.94603497 1024.45951273 552.28564161 1024.46542176 531.6252424 1024.47020775 C521.84853304 1024.47254452 512.07182428 1024.47614728 502.29511539 1024.47990313 C468.81893004 1024.49273862 435.34274502 1024.50345738 401.86655727 1024.50690573 C399.76540811 1024.50712736 397.66425894 1024.50734915 395.56310978 1024.50757108 C393.45692305 1024.50779172 391.35073633 1024.50801221 389.2445496 1024.50823253 C385.01927244 1024.50867508 380.79399527 1024.5091222 376.56871811 1024.50957221 C374.99728549 1024.50973629 374.99728549 1024.50973629 373.39410676 1024.50990369 C339.43509328 1024.51353325 305.47610117 1024.52944948 271.51709586 1024.55276257 C235.60182997 1024.57737349 199.68657629 1024.59107918 163.77130172 1024.59227365 C159.82655941 1024.5924451 155.88181711 1024.59266053 151.93707481 1024.59290808 C150.96578991 1024.59296385 149.99450502 1024.59301962 148.99378724 1024.59307708 C133.38049224 1024.59422648 117.7672192 1024.60523915 102.1539316 1024.61979514 C86.45150335 1024.63418075 70.74910317 1024.63738549 55.04667013 1024.62935516 C45.72575853 1024.6249085 36.40493772 1024.62872082 27.08403809 1024.64459367 C20.84701421 1024.65437999 14.61005358 1024.65313073 8.3730302 1024.64315744 C4.82640049 1024.63779158 1.27994449 1024.63696969 -2.26667047 1024.64966616 C-20.91731815 1024.70388726 -38.74105031 1023.94254576 -56.71521744 1018.51933783 C-57.58581803 1018.2618476 -58.45641861 1018.00435736 -59.35340103 1017.73906439 C-80.12908512 1011.41949352 -100.0122859 1001.74352765 -117.09021744 988.26933783 C-117.62807877 987.84571967 -118.1659401 987.4221015 -118.72010025 986.98564642 C-156.22371209 957.07499739 -180.9989877 914.53228173 -186.87242144 866.69882486 C-187.30064008 861.92209964 -187.22933317 857.1357453 -187.2216452 852.34339922 C-187.22369784 851.15124573 -187.22575047 849.95909223 -187.22786531 848.73081288 C-187.2325423 845.42446763 -187.23276353 842.11817683 -187.23108772 838.81183233 C-187.23035482 835.21352624 -187.23538378 831.61522737 -187.23966273 828.01692438 C-187.24723364 820.88121877 -187.24943533 813.74552064 -187.24999179 806.60981144 C-187.25090634 798.06186578 -187.25757663 789.51392702 -187.26433861 780.96598434 C-187.28039234 760.30559024 -187.28630137 739.64519688 -187.29108736 718.98479767 C-187.29342413 709.20808832 -187.29702689 699.43137955 -187.30078274 689.65467066 C-187.31361823 656.17848531 -187.32433699 622.70230029 -187.32778534 589.22611254 C-187.32800697 587.12496338 -187.32822876 585.02381421 -187.32845069 582.92266505 C-187.32867133 580.81647832 -187.32889181 578.7102916 -187.32911214 576.60410487 C-187.32955469 572.37882771 -187.33000181 568.15355054 -187.33045181 563.92827338 C-187.33056121 562.88065163 -187.3306706 561.83302989 -187.3307833 560.75366203 C-187.33441286 526.79464855 -187.35032909 492.83565644 -187.37364218 458.87665114 C-187.3982531 422.96138524 -187.41195878 387.04613156 -187.41315326 351.13085699 C-187.41332471 347.18611468 -187.41354014 343.24137238 -187.41378769 339.29663008 C-187.41384346 338.32534518 -187.41389923 337.35406029 -187.41395669 336.35334251 C-187.41510609 320.74004751 -187.42611876 305.12677447 -187.44067475 289.51348687 C-187.45506036 273.81105862 -187.4582651 258.10865844 -187.45023477 242.4062254 C-187.44578811 233.0853138 -187.44960043 223.76449299 -187.46547327 214.44359336 C-187.4752596 208.20656948 -187.47401034 201.96960885 -187.46403705 195.73258547 C-187.45867119 192.18595576 -187.4578493 188.63949976 -187.47054577 185.0928848 C-187.52459548 166.50118883 -186.7752684 148.69663274 -181.40271744 130.76933783 C-181.14853043 129.90534369 -180.89434342 129.04134955 -180.63245377 128.15117377 C-166.26715311 80.97485564 -134.13398217 43.15544078 -91.02771744 19.70683783 C-74.95231872 11.24764824 -57.90713365 5.6673004 -40.09021744 2.26933783 C-39.23813151 2.09558705 -38.38604558 1.92183627 -37.50813886 1.74282032 C-25.09927628 -0.41890067 -12.55330822 -0.01928936 0 0 Z " fill="#FEFEFE" transform="translate(187.09021743945777,-0.2693378310650587)"/>
<path d="M0 0 C3.5847586 0.0032918 7.16949443 -0.00503668 10.75424555 -0.01181835 C17.02723825 -0.02208823 23.3002001 -0.0249674 29.57320038 -0.02290613 C38.90209366 -0.01984824 48.23095297 -0.02819759 57.55983963 -0.03865538 C75.19472692 -0.05797261 92.82960256 -0.06362278 110.46449919 -0.06476949 C124.08810421 -0.06568957 137.71170468 -0.06981142 151.33530823 -0.07617074 C155.2608948 -0.07796592 159.18648138 -0.07974555 163.11206797 -0.0815205 C164.08806731 -0.0819626 165.06406665 -0.08240469 166.06964173 -0.08286019 C193.51457154 -0.09516473 220.95949976 -0.10306172 248.40443245 -0.10217363 C249.43867088 -0.10214247 250.47290932 -0.10211131 251.53848831 -0.10207921 C256.78008324 -0.101913 262.02167816 -0.10171492 267.26327308 -0.1015098 C268.8246863 -0.10144996 268.8246863 -0.10144996 270.41764323 -0.10138892 C272.52268231 -0.10130804 274.62772138 -0.10122445 276.73276045 -0.10113813 C309.46903169 -0.09991317 342.20526146 -0.11491726 374.94152084 -0.14228326 C411.74765471 -0.17303904 448.55376133 -0.19021361 485.35990885 -0.18835682 C489.28863898 -0.18820757 493.21736911 -0.18811015 497.14609924 -0.18804819 C498.59705296 -0.18801322 498.59705296 -0.18801322 500.07731888 -0.18797755 C515.60933684 -0.18791614 531.14131866 -0.20066016 546.67332589 -0.21791271 C562.29894264 -0.23490957 577.9245068 -0.23681144 593.5501277 -0.22369407 C602.81894251 -0.21633158 612.08759705 -0.21988156 621.35639471 -0.23957875 C627.56486377 -0.2516513 633.77321779 -0.24890769 639.98168175 -0.23463776 C643.50783215 -0.22693544 647.03367436 -0.22514386 650.55980201 -0.24155246 C693.06122271 -0.40060941 734.44162416 9.89880281 767.90978256 37.26933783 C768.4231517 37.6826435 768.93652084 38.09594916 769.46544662 38.52177924 C806.37985908 68.32002536 830.866351 110.45730863 836.69142866 157.838735 C837.12057619 162.61578365 837.04889892 167.40253963 837.04121033 172.19527644 C837.04428928 173.98350668 837.04428928 173.98350668 837.04743043 175.80786279 C837.05210742 179.11420804 837.05232865 182.42049883 837.05065284 185.72684333 C837.04991994 189.32514943 837.0549489 192.92344829 837.05922786 196.52175128 C837.06679876 203.65745689 837.06900046 210.79315502 837.06955691 217.92886423 C837.07047146 226.47680988 837.07714176 235.02474864 837.08390374 243.57269132 C837.09995746 264.23308542 837.10586649 284.89347878 837.11065248 305.553878 C837.11298925 315.33058735 837.11659201 325.10729611 837.12034786 334.88400501 C837.13318335 368.36019035 837.14390211 401.83637537 837.14735046 435.31256312 C837.14757209 437.41371228 837.14779388 439.51486145 837.14801581 441.61601062 C837.14823645 443.72219734 837.14845694 445.82838406 837.14867726 447.93457079 C837.14911981 452.15984795 837.14956693 456.38512512 837.15001694 460.61040228 C837.15012633 461.65802403 837.15023572 462.70564577 837.15034842 463.78501363 C837.15397798 497.74402711 837.16989421 531.70301923 837.1932073 565.66202453 C837.21781822 601.57729042 837.23152391 637.4925441 837.23271838 673.40781867 C837.23288983 677.35256098 837.23310526 681.29730328 837.23335281 685.24204558 C837.23340858 686.21333048 837.23346435 687.18461538 837.23352181 688.18533315 C837.23467121 703.79862815 837.24568388 719.4119012 837.26023987 735.02518879 C837.27462548 750.72761704 837.27783022 766.43001722 837.26979989 782.13245026 C837.26535323 791.45336186 837.26916555 800.77418267 837.2850384 810.0950823 C837.29482472 816.33210619 837.29357546 822.56906682 837.28360217 828.80609019 C837.27823631 832.3527199 837.27741442 835.8991759 837.29011089 839.44579086 C837.34433199 858.09643854 836.58299049 875.9201707 831.15978256 893.89433783 C830.90229233 894.76493842 830.64480209 895.635539 830.37950912 896.53252142 C824.05993825 917.30820551 814.38397238 937.19140629 800.90978256 954.26933783 C800.4861644 954.80719916 800.06254623 955.34506049 799.62609115 955.89922064 C770.7283444 992.13280006 730.7105949 1015.7063319 684.90978256 1023.26933783 C683.58978256 1023.26933783 682.26978256 1023.26933783 680.90978256 1023.26933783 C680.57978256 844.73933783 680.24978256 666.20933783 679.90978256 482.26933783 C670.45514253 494.06678794 670.45514253 494.06678794 661.30431381 506.06230658 C658.45855128 509.88777772 655.55877535 513.67163774 652.65978256 517.45683783 C652.10596908 518.18016303 651.55215561 518.90348822 650.9815599 519.64873236 C649.84989011 521.12639868 648.71805326 522.60393707 647.58605209 524.08134955 C644.92144328 527.55938977 642.25910123 531.039162 639.59728256 534.51933783 C639.0690892 535.2098725 638.54089584 535.90040717 637.99669662 536.61186713 C633.62764726 542.32589069 629.26793157 548.04699792 624.90978256 553.76933783 C618.44555748 562.25699923 611.97022172 570.73606075 605.48644272 579.20879096 C602.79340047 582.72834447 600.10165388 586.24888872 597.40978256 589.76933783 C594.19555193 593.9729323 590.98111001 598.17636369 587.76525131 602.37871283 C581.80459482 610.16887775 575.85295745 617.96582612 569.90978256 625.76933783 C563.44555748 634.25699923 556.97022172 642.73606075 550.48644272 651.20879096 C547.79340047 654.72834447 545.10165388 658.24888872 542.40978256 661.76933783 C539.19555193 665.9729323 535.98111001 670.17636369 532.76525131 674.37871283 C526.80459482 682.16887775 520.85295745 689.96582612 514.90978256 697.76933783 C508.44555748 706.25699923 501.97022172 714.73606075 495.48644272 723.20879096 C493.33707272 726.01781585 491.18855324 728.82749062 489.04015365 731.63725775 C487.95861699 733.05161231 486.87691293 734.46583888 485.79503647 735.87993353 C483.02124231 739.50581647 480.25030203 743.13382761 477.48400131 746.76543158 C474.77035058 750.32687951 472.04880883 753.88213622 469.31993881 757.43193549 C468.07424504 759.05504686 466.83524876 760.68329363 465.59728256 762.31230658 C459.26264229 770.49042614 452.74880755 775.9537497 443.73790756 781.00468939 C439.1578798 783.65568076 434.79435846 786.6204655 430.40587631 789.57402533 C428.52873607 790.83127087 426.65136819 792.08817657 424.77379623 793.34477728 C423.80735184 793.99217871 422.84090744 794.63958014 421.84517685 795.30659979 C414.25661177 800.38065932 406.63856964 805.41043544 399.02111069 810.44096869 C397.09119264 811.71632835 395.16217549 812.99305219 393.23400131 814.27104682 C390.38321522 816.16036046 387.52962366 818.04536743 384.67540756 819.92949408 C383.82529098 820.49410849 382.97517441 821.0587229 382.09929672 821.64044684 C365.54131351 832.54463224 365.54131351 832.54463224 358.90978256 831.26933783 C356.27962095 829.09659563 354.43641362 827.32259995 352.90978256 824.26933783 C352.61087309 818.61922902 353.2669327 813.9283575 354.99181381 808.52715033 C355.21472595 807.80077368 355.43763809 807.07439704 355.66730514 806.32600897 C358.2145289 798.11047577 360.95102579 789.95417567 363.70015732 781.80446356 C365.24594777 777.22093748 366.78109643 772.63385194 368.31603256 768.04668158 C368.62191803 767.13296286 368.9278035 766.21924414 369.24295822 765.27783698 C372.89026056 754.36433831 376.41129783 743.41113054 379.92150131 732.45293158 C380.26874252 731.38155951 380.61598373 730.31018744 380.9737474 729.20634955 C381.55015618 727.39774299 382.1070053 725.58259677 382.63097397 723.75810736 C385.54754552 713.94243763 392.31097205 706.2705726 398.47228256 698.26933783 C399.17264633 697.35507025 399.8730101 696.44080267 400.59459701 695.49883002 C402.02111523 693.63695742 403.44875666 691.77594484 404.877556 689.91582221 C407.26034595 686.81281367 409.63615837 683.70452541 412.01110092 680.59550971 C413.59485953 678.52250936 415.17984228 676.45045116 416.76525131 674.37871283 C419.98111001 670.17636369 423.19555193 665.9729323 426.40978256 661.76933783 C429.62401319 657.56574337 432.83845511 653.36231197 436.05431381 649.15996283 C442.0149703 641.36979792 447.96660767 633.57284955 453.90978256 625.76933783 C460.37400764 617.28167644 466.8493434 608.80261491 473.3331224 600.32988471 C476.02616466 596.81033119 478.71791124 593.28978695 481.40978256 589.76933783 C484.62401319 585.56574337 487.83845511 581.36231197 491.05431381 577.15996283 C497.0149703 569.36979792 502.96660767 561.57284955 508.90978256 553.76933783 C515.37400764 545.28167644 521.8493434 536.80261491 528.3331224 528.32988471 C531.02616466 524.81033119 533.71791124 521.28978695 536.40978256 517.76933783 C539.62401319 513.56574337 542.83845511 509.36231197 546.05431381 505.15996283 C552.0149703 497.36979792 557.96660767 489.57284955 563.90978256 481.76933783 C570.37400764 473.28167644 576.8493434 464.80261491 583.3331224 456.32988471 C586.02616466 452.81033119 588.71791124 449.28978695 591.40978256 445.76933783 C594.62401319 441.56574337 597.83845511 437.36231197 601.05431381 433.15996283 C607.0149703 425.36979792 612.96660767 417.57284955 618.90978256 409.76933783 C625.37400764 401.28167644 631.8493434 392.80261491 638.3331224 384.32988471 C639.93846425 382.23185356 641.54334876 380.13347342 643.14806381 378.03496283 C643.68592514 377.3316181 644.22378647 376.62827338 644.77794662 375.90361517 C645.86472862 374.48221359 646.95131758 373.06066438 648.03771225 371.63896674 C650.72828264 368.11860181 653.42243367 364.60110407 656.12462631 361.08965033 C709.58451291 291.49459796 680.00858004 312.37496934 680.90978256 158.26933783 C445.94978256 158.26933783 210.98978256 158.26933783 -31.09021744 158.26933783 C-31.09021744 443.71933783 -31.09021744 729.16933783 -31.09021744 1023.26933783 C-62.05879213 1020.17248036 -92.7086548 1007.6707066 -117.09021744 988.26933783 C-117.62227799 987.84862006 -118.15433853 987.42790228 -118.70252213 986.99443549 C-156.21804887 957.08765997 -180.99814902 914.53911197 -186.87242144 866.69882486 C-187.30064008 861.92209964 -187.22933317 857.1357453 -187.2216452 852.34339922 C-187.22369784 851.15124573 -187.22575047 849.95909223 -187.22786531 848.73081288 C-187.2325423 845.42446763 -187.23276353 842.11817683 -187.23108772 838.81183233 C-187.23035482 835.21352624 -187.23538378 831.61522737 -187.23966273 828.01692438 C-187.24723364 820.88121877 -187.24943533 813.74552064 -187.24999179 806.60981144 C-187.25090634 798.06186578 -187.25757663 789.51392702 -187.26433861 780.96598434 C-187.28039234 760.30559024 -187.28630137 739.64519688 -187.29108736 718.98479767 C-187.29342413 709.20808832 -187.29702689 699.43137955 -187.30078274 689.65467066 C-187.31361823 656.17848531 -187.32433699 622.70230029 -187.32778534 589.22611254 C-187.32800697 587.12496338 -187.32822876 585.02381421 -187.32845069 582.92266505 C-187.32867133 580.81647832 -187.32889181 578.7102916 -187.32911214 576.60410487 C-187.32955469 572.37882771 -187.33000181 568.15355054 -187.33045181 563.92827338 C-187.33056121 562.88065163 -187.3306706 561.83302989 -187.3307833 560.75366203 C-187.33441286 526.79464855 -187.35032909 492.83565644 -187.37364218 458.87665114 C-187.3982531 422.96138524 -187.41195878 387.04613156 -187.41315326 351.13085699 C-187.41332471 347.18611468 -187.41354014 343.24137238 -187.41378769 339.29663008 C-187.41384346 338.32534518 -187.41389923 337.35406029 -187.41395669 336.35334251 C-187.41510609 320.74004751 -187.42611876 305.12677447 -187.44067475 289.51348687 C-187.45506036 273.81105862 -187.4582651 258.10865844 -187.45023477 242.4062254 C-187.44578811 233.0853138 -187.44960043 223.76449299 -187.46547327 214.44359336 C-187.4752596 208.20656948 -187.47401034 201.96960885 -187.46403705 195.73258547 C-187.45867119 192.18595576 -187.4578493 188.63949976 -187.47054577 185.0928848 C-187.52459548 166.50118883 -186.7752684 148.69663274 -181.40271744 130.76933783 C-181.14853043 129.90534369 -180.89434342 129.04134955 -180.63245377 128.15117377 C-166.26715311 80.97485564 -134.13398217 43.15544078 -91.02771744 19.70683783 C-74.95231872 11.24764824 -57.90713365 5.6673004 -40.09021744 2.26933783 C-39.23813151 2.09558705 -38.38604558 1.92183627 -37.50813886 1.74282032 C-25.09927628 -0.41890067 -12.55330822 -0.01928936 0 0 Z " fill="#F8364E" transform="translate(187.09021743945777,-0.2693378310650587)"/>
<path d="M0 0 C11.88143018 8.12086838 19.68917012 18.21422793 23.11328125 32.26953125 C24.68863494 48.08939879 20.47755712 59.22746869 10.47460938 71.57080078 C7.87352415 74.81655956 5.38055521 78.14617092 2.86328125 81.45703125 C1.7441399 82.91976862 0.62434124 84.38200331 -0.49609375 85.84375 C-3.79577824 90.15019816 -7.09166314 94.45954081 -10.38671875 98.76953125 C-13.60091346 102.97315317 -16.81539132 107.17655713 -20.03125 111.37890625 C-25.99190649 119.16907117 -31.94354386 126.96601954 -37.88671875 134.76953125 C-45.39452151 144.62743176 -52.91941183 154.47215082 -60.45019531 164.3125 C-66.93834709 172.79110531 -73.41805675 181.27604408 -79.88671875 189.76953125 C-86.35094383 198.25719265 -92.82627959 206.73625417 -99.31005859 215.20898438 C-102.00310085 218.7285379 -104.69483255 222.24909351 -107.38671875 225.76953125 C-108.47004604 227.18620253 -109.55337937 228.60286921 -110.63671875 230.01953125 C-111.17296875 230.72078125 -111.70921875 231.42203125 -112.26171875 232.14453125 C-117.13671875 238.51953125 -117.13671875 238.51953125 -118.76098633 240.64355469 C-119.84678522 242.06345809 -120.93255987 243.48338003 -122.01831055 244.90332031 C-124.6887246 248.39561558 -127.3595277 251.88761171 -130.03125 255.37890625 C-135.99190649 263.16907117 -141.94354386 270.96601954 -147.88671875 278.76953125 C-154.35094383 287.25719265 -160.82627959 295.73625417 -167.31005859 304.20898438 C-170.00310085 307.72853789 -172.69484743 311.24908213 -175.38671875 314.76953125 C-178.60094938 318.97312572 -181.8153913 323.17655711 -185.03125 327.37890625 C-190.99190649 335.16907117 -196.94354386 342.96601954 -202.88671875 350.76953125 C-209.35094383 359.25719265 -215.82627959 367.73625417 -222.31005859 376.20898438 C-225.00310085 379.72853789 -227.69484743 383.24908213 -230.38671875 386.76953125 C-233.60094938 390.97312572 -236.8153913 395.17655711 -240.03125 399.37890625 C-245.99190649 407.16907117 -251.94354386 414.96601954 -257.88671875 422.76953125 C-264.35094383 431.25719265 -270.82627959 439.73625417 -277.31005859 448.20898438 C-279.45942859 451.01800927 -281.60794807 453.82768404 -283.75634766 456.63745117 C-284.83788432 458.05180573 -285.91958838 459.4660323 -287.00146484 460.88012695 C-289.775259 464.50600989 -292.54619929 468.13402102 -295.3125 471.765625 C-298.02615073 475.32707293 -300.74769248 478.88232964 -303.4765625 482.43212891 C-304.72225627 484.05524028 -305.96125255 485.68348705 -307.19921875 487.3125 C-313.53385902 495.49061956 -320.04769376 500.95394312 -329.05859375 506.00488281 C-333.63862151 508.65587418 -338.00214285 511.62065892 -342.390625 514.57421875 C-344.26776524 515.83146429 -346.14513312 517.08836999 -348.02270508 518.3449707 C-349.47237167 519.31607285 -349.47237167 519.31607285 -350.95132446 520.30679321 C-358.53988954 525.38085273 -366.15793167 530.41062886 -373.77539062 535.44116211 C-375.70530867 536.71652177 -377.63432582 537.99324561 -379.5625 539.27124023 C-382.41328609 541.16055387 -385.26687765 543.04556085 -388.12109375 544.9296875 C-388.97121033 545.49430191 -389.8213269 546.05891632 -390.69720459 546.64064026 C-407.2551878 557.54482566 -407.2551878 557.54482566 -413.88671875 556.26953125 C-416.51688036 554.09678905 -418.36008769 552.32279337 -419.88671875 549.26953125 C-420.18562822 543.61942244 -419.52956861 538.92855092 -417.8046875 533.52734375 C-417.58177536 532.8009671 -417.35886322 532.07459045 -417.12919617 531.32620239 C-414.58197241 523.11066919 -411.84547552 514.95436909 -409.09634399 506.80465698 C-407.55055354 502.22113089 -406.01540488 497.63404536 -404.48046875 493.046875 C-404.17458328 492.13315628 -403.86869781 491.21943756 -403.55354309 490.2780304 C-399.90624075 479.36453173 -396.38520348 468.41132396 -392.875 457.453125 C-392.52775879 456.38175293 -392.18051758 455.31038086 -391.82275391 454.20654297 C-391.24634513 452.39793641 -390.68949601 450.58279019 -390.16552734 448.75830078 C-387.2489558 438.94263105 -380.48552926 431.27076602 -374.32421875 423.26953125 C-373.62385498 422.35526367 -372.92349121 421.44099609 -372.2019043 420.49902344 C-370.77538609 418.63715084 -369.34774465 416.77613826 -367.91894531 414.91601562 C-365.53615536 411.81300709 -363.16034294 408.70471883 -360.78540039 405.59570312 C-359.20164178 403.52270278 -357.61665903 401.45064458 -356.03125 399.37890625 C-352.8153913 395.17655711 -349.60094938 390.97312572 -346.38671875 386.76953125 C-343.17248812 382.56593678 -339.9580462 378.36250539 -336.7421875 374.16015625 C-330.78153101 366.36999133 -324.82989364 358.57304296 -318.88671875 350.76953125 C-312.42249367 342.28186985 -305.94715791 333.80280833 -299.46337891 325.33007812 C-296.77033665 321.81052461 -294.07859007 318.28998037 -291.38671875 314.76953125 C-288.17248812 310.56593678 -284.9580462 306.36250539 -281.7421875 302.16015625 C-275.78153101 294.36999133 -269.82989364 286.57304296 -263.88671875 278.76953125 C-257.42249367 270.28186985 -250.94715791 261.80280833 -244.46337891 253.33007812 C-241.77033665 249.81052461 -239.07859007 246.28998037 -236.38671875 242.76953125 C-233.17248812 238.56593678 -229.9580462 234.36250539 -226.7421875 230.16015625 C-220.78153101 222.36999133 -214.82989364 214.57304296 -208.88671875 206.76953125 C-202.42249367 198.28186985 -195.94715791 189.80280833 -189.46337891 181.33007812 C-186.77033665 177.81052461 -184.07859007 174.28998037 -181.38671875 170.76953125 C-178.17248812 166.56593678 -174.9580462 162.36250539 -171.7421875 158.16015625 C-165.78153101 150.36999133 -159.82989364 142.57304296 -153.88671875 134.76953125 C-147.42249367 126.28186985 -140.94715791 117.80280833 -134.46337891 109.33007812 C-131.77033665 105.81052461 -129.07859007 102.28998037 -126.38671875 98.76953125 C-123.17248812 94.56593678 -119.9580462 90.36250539 -116.7421875 86.16015625 C-110.78153101 78.36999133 -104.82989364 70.57304296 -98.88671875 62.76953125 C-92.42693059 54.28769562 -85.95596876 45.81451131 -79.4765625 37.34765625 C-77.27138851 34.46521752 -75.06778189 31.58158296 -72.86474609 28.69750977 C-71.76498267 27.25937 -70.66377315 25.8223348 -69.56103516 24.38647461 C-67.05355858 21.11988526 -64.56415717 17.84431448 -62.12890625 14.5234375 C-47.39782967 -5.4309537 -22.60302873 -13.54958285 0 0 Z " fill="#323232" transform="translate(959.88671875,274.73046875)"/>
<path d="M0 0 C3.99090336 0.59159273 6.32188222 2.58407364 9.4375 5.0625 C10.57723029 5.96207223 11.71793015 6.86041683 12.859375 7.7578125 C13.50068359 8.26344727 14.14199219 8.76908203 14.80273438 9.29003906 C17.33316256 11.25927451 19.8907789 13.18967283 22.453125 15.1171875 C23.87153687 16.18634399 23.87153687 16.18634399 25.31860352 17.27709961 C27.21528346 18.70537982 29.11417605 20.13072697 31.01538086 21.55297852 C32.32841187 22.54575806 32.32841187 22.54575806 33.66796875 23.55859375 C34.45453857 24.14954834 35.2411084 24.74050293 36.05151367 25.34936523 C38 27 38 27 40 30 C30.87094237 41.98906021 21.7345048 53.97236619 12.57666016 65.93945312 C9.8836179 69.45900664 7.19187132 72.97955088 4.5 76.5 C1.28576937 80.70359447 -1.92867255 84.90702586 -5.14453125 89.109375 C-11.10518774 96.89953992 -17.05682511 104.69648829 -23 112.5 C-29.46422508 120.9876614 -35.93956084 129.46672292 -42.42333984 137.93945312 C-45.1163821 141.45900664 -47.80812868 144.97955088 -50.5 148.5 C-53.71423063 152.70359447 -56.92867255 156.90702586 -60.14453125 161.109375 C-66.10518774 168.89953992 -72.05682511 176.69648829 -78 184.5 C-84.46422508 192.9876614 -90.93956084 201.46672292 -97.42333984 209.93945312 C-100.1163821 213.45900665 -102.8081138 216.97956226 -105.5 220.5 C-106.58332729 221.91667128 -107.66666062 223.33333796 -108.75 224.75 C-109.28625 225.45125 -109.8225 226.1525 -110.375 226.875 C-115.25 233.25 -115.25 233.25 -116.87426758 235.37402344 C-117.96006647 236.79392684 -119.04584112 238.21384878 -120.1315918 239.63378906 C-122.80200585 243.12608433 -125.47280895 246.61808046 -128.14453125 250.109375 C-134.10518774 257.89953992 -140.05682511 265.69648829 -146 273.5 C-152.46422508 281.9876614 -158.93956084 290.46672292 -165.42333984 298.93945312 C-168.1163821 302.45900664 -170.80812868 305.97955088 -173.5 309.5 C-176.71423063 313.70359447 -179.92867255 317.90702586 -183.14453125 322.109375 C-189.10518801 329.89954027 -195.0566766 337.69660112 -201 345.5 C-203.01944106 348.15062212 -205.03898265 350.8011676 -207.05859375 353.45166016 C-208.32193034 355.1099483 -209.58496707 356.76846493 -210.84765625 358.42724609 C-214.09913979 362.69794467 -217.35634621 366.96406032 -220.62939453 371.21826172 C-221.87909678 372.84283013 -223.12528484 374.47010029 -224.37109375 376.09765625 C-229.11496643 382.18667241 -233.43453702 387.52832886 -241 390 C-248.8535818 390.80693911 -256.59740265 391.1105934 -263 386 C-269.54517509 380.01129728 -273.00250179 373.890276 -273.4375 365 C-273.644094 356.84642346 -267.86447521 350.13437735 -263.0625 344.0625 C-261.89306159 342.55872405 -260.72379544 341.05481414 -259.5546875 339.55078125 C-258.96139648 338.7923291 -258.36810547 338.03387695 -257.75683594 337.25244141 C-255.04150062 333.77110683 -252.36513282 330.26035955 -249.6875 326.75 C-248.60814571 325.338486 -247.52871688 323.927029 -246.44921875 322.515625 C-242.62740262 317.5145373 -238.81360884 312.50734738 -235 307.5 C-227.49219724 297.64209949 -219.96730692 287.79738043 -212.43652344 277.95703125 C-205.94837166 269.47842594 -199.468662 260.99348717 -193 252.5 C-186.53577492 244.0123386 -180.06043916 235.53327708 -173.57666016 227.06054688 C-170.8836179 223.54099336 -168.19187132 220.02044912 -165.5 216.5 C-162.28576937 212.29640553 -159.07132745 208.09297414 -155.85546875 203.890625 C-149.89481226 196.10046008 -143.94317489 188.30351171 -138 180.5 C-131.53577492 172.0123386 -125.06043916 163.53327708 -118.57666016 155.06054688 C-115.8836179 151.54099336 -113.19187132 148.02044912 -110.5 144.5 C-107.28576937 140.29640553 -104.07132745 136.09297414 -100.85546875 131.890625 C-94.89481226 124.10046008 -88.94317489 116.30351171 -83 108.5 C-76.53577492 100.0123386 -70.06043916 91.53327708 -63.57666016 83.06054688 C-60.8836179 79.54099336 -58.19187132 76.02044912 -55.5 72.5 C-52.28576937 68.29640553 -49.07132745 64.09297414 -45.85546875 59.890625 C-39.89481219 52.10045998 -33.94321652 44.3034801 -28 36.5 C-7.14294233 9.11699184 -7.14294233 9.11699184 0 0 Z " fill="#FDFDFD" transform="translate(862,371)"/>
<path d="M0 0 C174.9 0 349.8 0 530 0 C530 6.93 530 13.86 530 21 C355.1 21 180.2 21 0 21 C0 14.07 0 7.14 0 0 Z " fill="#E6E6E5" transform="translate(246,908)"/>
<path d="M0 0 C174.9 0 349.8 0 530 0 C530 6.93 530 13.86 530 21 C355.1 21 180.2 21 0 21 C0 14.07 0 7.14 0 0 Z " fill="#E6E6E5" transform="translate(246,832)"/>
<path d="M0 0 C174.9 0 349.8 0 530 0 C528.68 1.98 527.36 3.96 526 6 C525.23029421 7.33411059 524.46934617 8.67335075 523.72112632 10.019629 C517.34391957 20.57900678 517.34391957 20.57900678 511.83701068 22.91915882 C505.65411463 24.37654305 499.34984381 24.05258242 493.04351807 23.8861084 C490.91299391 23.88895762 488.78246957 23.89885506 486.65200591 23.91516066 C480.81678955 23.93954424 474.98650261 23.86435621 469.15211582 23.77250695 C462.85381787 23.69092987 456.55559722 23.70222858 450.25686646 23.70213318 C439.35059246 23.68930905 428.44619252 23.61846825 417.54053497 23.50648499 C406.10699477 23.38932584 394.67400369 23.30549419 383.23992157 23.26585388 C382.17228552 23.26212461 382.17228552 23.26212461 381.08308106 23.25832 C377.46820695 23.2458657 373.85333115 23.23400378 370.23845431 23.22236985 C344.65517236 23.13896938 319.07283562 22.98132355 293.49023438 22.77978516 C268.64204366 22.58420289 243.79400661 22.42239423 218.9453125 22.30615234 C218.17894608 22.30255387 217.41257965 22.29895539 216.62299 22.29524788 C208.92660071 22.25914668 201.23020839 22.22373043 193.53381363 22.18881593 C177.85632428 22.11767981 162.17885809 22.04197301 146.50140381 21.96350098 C145.78062998 21.95989885 145.05985615 21.95629672 144.3172407 21.95258544 C96.21100089 21.71164662 48.10545702 21.36293808 0 21 C0 14.07 0 7.14 0 0 Z " fill="#E5E5E4" transform="translate(246,449)"/>
<path d="M0 0 C11.55 0 23.1 0 35 0 C39.44767365 15.59708468 43.38805047 31.31120109 47.29675293 47.04968262 C48.16675608 50.55049293 49.03956688 54.05060315 49.91210938 57.55078125 C51.61075029 64.36652244 53.30638672 71.18300761 55 78 C57.9604425 67.10128227 60.7182184 56.16371863 63.375 45.1875 C63.66514481 43.99249374 63.66514481 43.99249374 63.96115112 42.77334595 C67.41647763 28.53951934 70.74299421 14.28071769 74 0 C86.54 0 99.08 0 112 0 C112 40.59 112 81.18 112 123 C103.09 123 94.18 123 85 123 C84.67 96.93 84.34 70.86 84 44 C80.535 58.85 80.535 58.85 77 74 C74.4375 83.75 74.4375 83.75 73.26171875 88.11328125 C70.78770503 97.49933331 68.72631414 106.99446318 66.58496094 116.46069336 C66.08147197 118.64633139 65.54397852 120.82408592 65 123 C58.07 123 51.14 123 44 123 C43.57589844 121.08703125 43.15179687 119.1740625 42.71484375 117.203125 C39.49538786 102.76884508 36.19070294 88.37508338 32.48608398 74.05566406 C30.01534068 64.40495113 28.0602993 54.78642166 26 45 C25.67 70.74 25.34 96.48 25 123 C16.75 123 8.5 123 0 123 C0 82.41 0 41.82 0 0 Z " fill="#323232" transform="translate(583,249)"/>
<path d="M0 0 C155.43 0 310.86 0 471 0 C469.02 2.97 467.04 5.94 465 9 C464.37035011 10.13954738 463.74070022 11.27909476 463.09197003 12.45317388 C460.11604665 17.39701093 457.87200688 20.46630866 452.19116485 22.08586264 C447.3349191 22.67185499 442.48712238 22.54352119 437.60618591 22.4430542 C435.71748831 22.44829028 433.82879924 22.45880316 431.94015652 22.47412419 C426.76025137 22.50092247 421.5833309 22.45301769 416.40380609 22.39278746 C410.81495736 22.34092497 405.2262745 22.35850509 399.63725281 22.36761475 C389.95745958 22.37390458 380.27863759 22.33628239 370.59908867 22.26876068 C356.60429233 22.17120066 342.60996521 22.13997996 328.61486567 22.12490478 C305.9085466 22.0986465 283.20283346 22.01890551 260.49682617 21.90527344 C238.44118943 21.7950237 216.38569117 21.7100386 194.32983398 21.65917969 C193.30967534 21.65681222 193.30967534 21.65681222 192.26890744 21.65439692 C185.43887467 21.63857439 178.60884084 21.62326467 171.77880608 21.60833061 C114.51883981 21.48308209 57.25945237 21.27046493 0 21 C0 14.07 0 7.14 0 0 Z " fill="#E5E5E4" transform="translate(246,526)"/>
<path d="M0 0 C136.29 0 272.58 0 413 0 C411.02 2.97 409.04 5.94 407 9 C406.27357178 10.21078018 405.54714356 11.42156036 404.79870236 12.66903085 C399.17101331 21.27571798 399.17101331 21.27571798 393.48480582 23.17272055 C389.17635342 23.62529394 385.04760788 23.647614 380.72579956 23.52534485 C379.07960869 23.52688486 377.43341499 23.53415519 375.78727067 23.54662961 C371.28176712 23.56431028 366.78052532 23.50112367 362.27577686 23.42431009 C357.41168262 23.35567526 352.54761684 23.36260087 347.68312073 23.36022949 C339.26139652 23.34583779 330.84110908 23.28385129 322.41991806 23.18929482 C310.24461053 23.0526548 298.06975639 22.98816902 285.89381196 22.94114365 C266.13835422 22.8628921 246.38374445 22.72649963 226.62890625 22.5534668 C207.44184441 22.38553181 188.25490418 22.2450273 169.06738281 22.14135742 C167.8841728 22.13495502 166.70096279 22.12855262 165.48189794 22.12195621 C159.54593032 22.09000548 153.60996 22.05859345 147.6739881 22.02744925 C98.44862566 21.76848238 49.22428263 21.41415595 0 21 C0 14.07 0 7.14 0 0 Z " fill="#E5E5E4" transform="translate(246,602)"/>
<path d="M0 0 C57.40507519 0 57.40507519 0 67.25 8.18359375 C76.47456099 17.75819388 77.58257136 29.51561112 77.375 42.28125 C76.43376938 51.61512027 72.07485958 59.82730372 65 66 C63.67702185 66.68698692 62.34469593 67.35655996 61 68 C62.87967434 74.56097007 65.0167107 80.94272995 67.50390625 87.296875 C67.98983498 88.55277435 67.98983498 88.55277435 68.48558044 89.83404541 C69.50767516 92.47408834 70.53478457 95.11214064 71.5625 97.75 C72.59293976 100.40245954 73.62227931 103.05533783 74.65013123 105.70880127 C75.28618679 107.35004177 75.92384386 108.99066283 76.56336975 110.6305542 C76.99908546 111.75267303 76.99908546 111.75267303 77.44360352 112.89746094 C77.69658707 113.54680603 77.94957062 114.19615112 78.21022034 114.86517334 C79.20484989 117.5537228 80.09349097 120.28047292 81 123 C71.1 123 61.2 123 51 123 C48.71853849 116.34403976 46.43891934 109.68750882 44.1640625 103.02929688 C43.38911696 100.76297125 42.61307822 98.49701913 41.8359375 96.23144531 C40.72110105 92.980787 39.6101628 89.72881944 38.5 86.4765625 C38.15001953 85.45881744 37.80003906 84.44107239 37.43945312 83.39248657 C37.11912109 82.45166229 36.79878906 81.51083801 36.46875 80.54150391 C36.18451172 79.71099518 35.90027344 78.88048645 35.60742188 78.02481079 C35 76 35 76 35 74 C32.36 74 29.72 74 27 74 C27 90.17 27 106.34 27 123 C18.09 123 9.18 123 0 123 C0 82.41 0 41.82 0 0 Z " fill="#323232" transform="translate(247,249)"/>
<path d="M0 0 C116.82 0 233.64 0 354 0 C351.20498311 4.89127955 348.9100585 8.56467991 345.375 12.75 C343.0992394 15.45671859 340.96256915 18.05614628 339 21 C336.57792509 21.37259549 336.57792509 21.37259549 333.45961571 21.36914349 C331.68233591 21.3781032 331.68233591 21.3781032 329.86915147 21.38724393 C328.55594568 21.3785054 327.24273989 21.36976688 325.88973999 21.36076355 C324.48970477 21.36207069 323.08967026 21.36469541 321.68963969 21.36853105 C317.82893173 21.37526609 313.96847159 21.3632022 310.10779524 21.34819686 C305.94964553 21.33528401 301.79151066 21.33962258 297.63334656 21.34190369 C290.42457116 21.34347944 283.215877 21.33403876 276.00712204 21.31719017 C265.58438788 21.29284554 255.16169315 21.28499956 244.73893364 21.2812262 C227.83016524 21.27465457 210.92144017 21.25467416 194.01269531 21.22631836 C177.58398659 21.19879617 161.15528961 21.17755359 144.7265625 21.16479492 C143.71449645 21.16400675 142.70243039 21.16321858 141.65969567 21.16240653 C136.58263686 21.15849151 131.50557796 21.15470037 126.42851901 21.15097082 C84.2856489 21.11985278 42.14282761 21.06677521 0 21 C0 14.07 0 7.14 0 0 Z " fill="#E5E5E4" transform="translate(246,679)"/>
<path d="M0 0 C9.24 0 18.48 0 28 0 C28.01458252 2.49224121 28.02916504 4.98448242 28.04418945 7.55224609 C28.09467331 15.8144863 28.16129237 24.07654076 28.23571491 32.33859825 C28.28031841 37.34469345 28.31959637 42.35070914 28.34643555 47.35693359 C28.3725688 52.19410174 28.41304133 57.03096229 28.46318626 61.867939 C28.47978746 63.70733418 28.49134354 65.5467825 28.49761391 67.38624191 C28.34943345 82.5793726 28.34943345 82.5793726 33.5625 96.625 C37.57641666 98.88926068 41.51784348 98.68396544 46 98 C49.11011354 96.54420217 50.36558548 95.33242152 51.8396759 92.23648071 C54.93717101 83.27398625 54.47980337 74.01105118 54.51171875 64.6484375 C54.52858732 62.77941728 54.54674046 60.91040826 54.56611633 59.04141235 C54.61338606 54.152359 54.64334384 49.26335105 54.66955566 44.37414551 C54.69947804 39.37303708 54.74596795 34.37208476 54.79101562 29.37109375 C54.87678656 19.58079338 54.9427141 9.79050852 55 0 C64.24 0 73.48 0 83 0 C83.06803837 11.11886487 83.12296683 22.23758927 83.15543652 33.35661602 C83.17102791 38.52078229 83.19214566 43.68479756 83.22631836 48.84887695 C83.2591462 53.84151995 83.27690197 58.83401857 83.28463173 63.82676125 C83.29013349 65.72235191 83.30087589 67.61793553 83.31719017 69.51346397 C83.45353886 86.02687021 82.63187255 103.10630629 70.6875 115.9375 C59.75378718 125.78985661 47.23010017 126.92017195 33.10742188 126.1953125 C22.97428972 125.25618996 14.89250254 119.55403513 8.3125 112.125 C-0.78926625 99.31990229 -0.69570179 84.55631795 -0.48828125 69.53125 C-0.47893076 67.51388434 -0.47182525 65.49650715 -0.46684265 63.47912598 C-0.44794868 58.22482759 -0.39900419 52.97124419 -0.34332275 47.71722412 C-0.29174583 42.33371649 -0.26924732 36.95009088 -0.24414062 31.56640625 C-0.19086444 21.04390962 -0.10307726 10.52212671 0 0 Z " fill="#333333" transform="translate(484,249)"/>
<path d="M0 0 C103.62 0 207.24 0 314 0 C311 11 311 11 307 21 C205.69 21 104.38 21 0 21 C0 14.07 0 7.14 0 0 Z " fill="#E5E5E4" transform="translate(246,755)"/>
<path d="M0 0 C2.61457838 1.85761226 4.72215752 3.72215752 7 6 C5.3518456 11.03382098 2.39351949 15.0260491 -0.625 19.3125 C-1.140625 20.05306641 -1.65625 20.79363281 -2.1875 21.55664062 C-3.45394726 23.37422697 -4.72485759 25.18850838 -6 27 C-8.55853188 25.77323093 -10.70995742 24.50737649 -13.0625 22.875 C-17.77589867 20.16708629 -22.71971775 20.16884446 -28 21 C-31.00197464 22.80118478 -32.45166366 23.90332732 -34 27 C-34.2357855 29.04068634 -34.2357855 29.04068634 -34.25 31.3125 C-34.28867187 32.45138672 -34.28867187 32.45138672 -34.328125 33.61328125 C-33.89361359 36.77383446 -32.93209653 38.45627543 -31 41 C-28.1997359 43.11030367 -28.1997359 43.11030367 -24.9375 44.9375 C-24.36257813 45.27813477 -23.78765625 45.61876953 -23.1953125 45.96972656 C-21.46972648 46.99034756 -19.73493623 47.99535547 -18 49 C-16.1644573 50.07958568 -14.33086211 51.16249544 -12.5 52.25 C-11.7471875 52.68828125 -10.994375 53.1265625 -10.21875 53.578125 C-5.49331076 56.60639944 -2.29053144 59.59676529 0.6875 64.375 C1.26886719 65.29023438 1.85023438 66.20546875 2.44921875 67.1484375 C7.92744855 77.22175678 6.9918504 88.5596604 3.90625 99.31640625 C0.45752924 109.52878194 -5.11934073 115.7779232 -14.59375 120.95703125 C-24.82330335 125.3909448 -38.44682986 126.01986528 -49.0625 122.375 C-55.4914474 119.55669388 -62.1858543 116.19989456 -67 111 C-65.3518456 105.96617902 -62.39351949 101.9739509 -59.375 97.6875 C-58.6015625 96.57665039 -58.6015625 96.57665039 -57.8125 95.44335938 C-56.54605274 93.62577303 -55.27514241 91.81149162 -54 90 C-51.7253392 91.12640037 -49.48930025 92.28161443 -47.265625 93.5078125 C-39.05206995 97.95715917 -39.05206995 97.95715917 -30 98 C-26.62216946 96.31108473 -24.63637519 94.96839703 -22.5625 91.8125 C-21.72039787 87.60198936 -21.61007988 84.10593749 -23 80 C-27.20646209 74.12332502 -34.08227452 71.31475318 -40.34350586 68.12084961 C-49.22137221 63.47900966 -56.42564098 57.5575252 -60 48 C-60.35578125 47.26910156 -60.7115625 46.53820312 -61.078125 45.78515625 C-62.30483561 42.07903478 -62.29071893 38.54561902 -62.25 34.6875 C-62.25773437 33.96626953 -62.26546875 33.24503906 -62.2734375 32.50195312 C-62.23578633 22.00668896 -58.91837008 12.49230486 -51.828125 4.66796875 C-38.20253282 -7.76392839 -15.79305031 -8.87069735 0 0 Z " fill="#323232" transform="translate(468,251)"/>
<path d="M0 0 C19.47 0 38.94 0 59 0 C59 7.92 59 15.84 59 24 C48.11 24 37.22 24 26 24 C26 32.25 26 40.5 26 49 C35.9 49 45.8 49 56 49 C56 56.26 56 63.52 56 71 C46.1 71 36.2 71 26 71 C26 79.91 26 88.82 26 98 C37.55 98 49.1 98 61 98 C61 106.25 61 114.5 61 123 C40.87 123 20.74 123 0 123 C0 82.41 0 41.82 0 0 Z " fill="#313131" transform="translate(712,249)"/>
<path d="M0 0 C19.47 0 38.94 0 59 0 C59 7.92 59 15.84 59 24 C48.11 24 37.22 24 26 24 C26 32.25 26 40.5 26 49 C35.9 49 45.8 49 56 49 C56 56.26 56 63.52 56 71 C46.1 71 36.2 71 26 71 C26 79.91 26 88.82 26 98 C37.55 98 49.1 98 61 98 C61 106.25 61 114.5 61 123 C40.87 123 20.74 123 0 123 C0 82.41 0 41.82 0 0 Z " fill="#313131" transform="translate(337,249)"/>
<path d="M0 0 C6.33619844 3.61003575 11.19903359 9.30351779 13.32421875 16.32421875 C14.67588602 25.95484806 11.44528051 33.27576652 5.79516602 40.86694336 C5.20662842 41.63659424 4.61809082 42.40624512 4.01171875 43.19921875 C3.39288818 44.02365479 2.77405762 44.84809082 2.13647461 45.69750977 C-2.6134882 52.00054152 -7.44911045 58.23917768 -12.32861328 64.44238281 C-15.55001311 68.54629594 -18.70008442 72.69079853 -21.78515625 76.8984375 C-22.46586182 77.82342041 -23.14656738 78.74840332 -23.84790039 79.70141602 C-25.17038675 81.50451523 -26.48497111 83.31344247 -27.79077148 85.12866211 C-28.68324585 86.34307983 -28.68324585 86.34307983 -29.59375 87.58203125 C-30.11735107 88.30535645 -30.64095215 89.02868164 -31.18041992 89.77392578 C-31.67388916 90.28552246 -32.1673584 90.79711914 -32.67578125 91.32421875 C-37.02747305 91.32421875 -39.43149421 88.76304663 -42.73828125 86.19921875 C-43.43203857 85.67021973 -44.1257959 85.1412207 -44.84057617 84.59619141 C-47.12635553 82.84822753 -49.40227544 81.08811325 -51.67578125 79.32421875 C-52.48853516 78.69386719 -53.30128906 78.06351562 -54.13867188 77.4140625 C-57.37056564 74.90459204 -60.60144042 72.39396175 -63.82250977 69.87060547 C-64.54365967 69.30615723 -65.26480957 68.74170898 -66.0078125 68.16015625 C-66.64436768 67.6604834 -67.28092285 67.16081055 -67.93676758 66.64599609 C-69.4725812 65.47866562 -71.07068228 64.39428473 -72.67578125 63.32421875 C-72.0698729 60.07291545 -70.99462832 58.1307427 -68.9375 55.55859375 C-68.08768555 54.48351562 -68.08768555 54.48351562 -67.22070312 53.38671875 C-66.60775391 52.62359375 -65.99480469 51.86046875 -65.36328125 51.07421875 C-64.07432438 49.44495625 -62.78658466 47.81473017 -61.5 46.18359375 C-60.85337402 45.36568359 -60.20674805 44.54777344 -59.54052734 43.70507812 C-56.86271061 40.28611128 -54.26502115 36.81046264 -51.67578125 33.32421875 C-45.60547839 25.17596101 -39.39308429 17.13837267 -33.10693359 9.15551758 C-31.90226475 7.61402645 -30.72689615 6.0497015 -29.55859375 4.48046875 C-21.74945647 -4.46277561 -10.15178245 -4.54200628 0 0 Z " fill="#FDFDFD" transform="translate(948.67578125,291.67578125)"/>
<path d="M0 0 C1.16140503 -0.00102219 2.32281006 -0.00204437 3.51940918 -0.00309753 C7.35656421 0.00177764 11.19133708 0.05622352 15.02807617 0.11108398 C17.68898041 0.12414049 20.34975287 0.13444856 23.01066589 0.14109802 C29.29724368 0.16283542 35.58296703 0.22025025 41.86916894 0.29054445 C49.02743156 0.36884872 56.18573549 0.40728936 63.34431994 0.4424125 C78.06617502 0.5155359 92.78731683 0.64003488 107.50854492 0.79467773 C107.50854492 7.72467773 107.50854492 14.65467773 107.50854492 21.79467773 C62.29854492 21.79467773 17.08854492 21.79467773 -29.49145508 21.79467773 C-27.84145508 20.14467773 -26.19145508 18.49467773 -24.49145508 16.79467773 C-23.1435688 15.34978449 -21.80949723 13.89184579 -20.49145508 12.41967773 C-19.85208008 11.71069336 -19.21270508 11.00170898 -18.55395508 10.27124023 C-16.52674609 8.02211042 -16.52674609 8.02211042 -15.60028553 6.04951382 C-11.91129579 -0.68046271 -7.10883249 -0.16342144 0 0 Z " fill="#E5E5E4" transform="translate(668.491455078125,754.205322265625)"/>
<path d="M0 0 C1.33654489 0.03739985 2.67319495 0.07119957 4.00991821 0.1015625 C7.51341352 0.19075513 11.01334205 0.32852906 14.51477051 0.47674561 C18.09361013 0.61953738 21.67367186 0.71597507 25.25390625 0.81640625 C32.26761859 1.01994647 39.27812517 1.27915314 46.2890625 1.5625 C46.2890625 8.4925 46.2890625 15.4225 46.2890625 22.5625 C42.89681396 22.60008423 42.89681396 22.60008423 39.43603516 22.63842773 C31.97607861 22.72178829 24.5161925 22.81048868 17.05632973 22.90183926 C12.53204436 22.9570769 8.00775253 23.01049825 3.48339844 23.05981445 C-0.88030358 23.10744559 -5.24392567 23.15978795 -9.6075325 23.21544075 C-11.27492923 23.23586998 -12.94234788 23.25458211 -14.60978317 23.27157402 C-16.93964335 23.2956055 -19.26935185 23.32566166 -21.59912109 23.35717773 C-22.29323593 23.3629332 -22.98735077 23.36868866 -23.70249939 23.37461853 C-27.32949229 23.39170692 -27.32949229 23.39170692 -30.7109375 24.5625 C-29.08639026 20.93319234 -26.86506376 17.96893788 -24.4609375 14.8125 C-23.71328125 13.82765625 -22.965625 12.8428125 -22.1953125 11.828125 C-21.78606537 11.31372864 -21.37681824 10.79933228 -20.95516968 10.26934814 C-19.64715728 8.56282942 -19.64715728 8.56282942 -18.6378479 6.5133667 C-14.13845417 -1.2710585 -8.28279972 -0.40826531 0 0 Z " fill="#E5E5E4" transform="translate(729.7109375,677.4375)"/>
<path d="M0 0 C13 0 13 0 18 3 C22.16276497 7.74092677 23.30439269 10.42836055 23.21484375 16.6171875 C22.76740778 21.57965918 21.0797804 24.97420862 17.5 28.375 C11.37942293 32.35337509 8.63898289 31 0 31 C0 20.77 0 10.54 0 0 Z " fill="#FCFCFC" transform="translate(274,272)"/>
<path d="M0 0 C0.66 0 1.32 0 2 0 C2 6.93 2 13.86 2 21 C-5.8125 21.375 -5.8125 21.375 -8.26098633 21.47802734 C-11.96958079 21.68367265 -13.85233456 21.90155637 -17 24 C-15.67046039 21.17282257 -14.17172379 18.7375837 -12.28515625 16.25 C-11.50301758 15.21359375 -11.50301758 15.21359375 -10.70507812 14.15625 C-10.16302734 13.4446875 -9.62097656 12.733125 -9.0625 12 C-8.52431641 11.2884375 -7.98613281 10.576875 -7.43164062 9.84375 C-6.42603154 8.51451087 -5.41910519 7.18626645 -4.41040039 5.859375 C-3.39233399 4.51722619 -2.40845612 3.1489059 -1.44702148 1.765625 C-0.96950439 1.18296875 -0.4919873 0.6003125 0 0 Z " fill="#E3E3E2" transform="translate(774,602)"/>
</svg>
