<?xml version="1.0" encoding="UTF-8"?>
<svg xmlns="http://www.w3.org/2000/svg" xmlns:xlink="http://www.w3.org/1999/xlink" width="36px" height="36px" viewBox="0 0 36 36" version="1.1">
<g id="surface1">
<path style=" stroke:none;fill-rule:nonzero;fill:rgb(99.607843%,99.607843%,99.607843%);fill-opacity:1;" d="M 6.578125 -0.0078125 C 6.703125 -0.0078125 6.828125 -0.0078125 6.957031 -0.0117188 C 7.175781 -0.0117188 7.398438 -0.0117188 7.617188 -0.0117188 C 7.945312 -0.0117188 8.273438 -0.0117188 8.601562 -0.0117188 C 9.222656 -0.0117188 9.839844 -0.0117188 10.460938 -0.0117188 C 10.941406 -0.0117188 11.417969 -0.0117188 11.898438 -0.0117188 C 12.035156 -0.0117188 12.171875 -0.0117188 12.3125 -0.0117188 C 12.347656 -0.0117188 12.378906 -0.0117188 12.414062 -0.0117188 C 13.378906 -0.0117188 14.34375 -0.0117188 15.308594 -0.0117188 C 15.347656 -0.0117188 15.382812 -0.0117188 15.421875 -0.0117188 C 15.605469 -0.0117188 15.789062 -0.0117188 15.972656 -0.0117188 C 16.027344 -0.0117188 16.027344 -0.0117188 16.085938 -0.0117188 C 16.160156 -0.0117188 16.230469 -0.0117188 16.304688 -0.0117188 C 17.457031 -0.0117188 18.609375 -0.0117188 19.757812 -0.015625 C 21.054688 -0.015625 22.347656 -0.015625 23.640625 -0.015625 C 23.777344 -0.015625 23.917969 -0.015625 24.054688 -0.015625 C 24.105469 -0.015625 24.105469 -0.015625 24.160156 -0.015625 C 24.703125 -0.015625 25.25 -0.015625 25.796875 -0.015625 C 26.347656 -0.0195312 26.894531 -0.0195312 27.445312 -0.015625 C 27.769531 -0.015625 28.097656 -0.015625 28.421875 -0.0195312 C 28.640625 -0.0195312 28.859375 -0.0195312 29.078125 -0.0195312 C 29.199219 -0.015625 29.324219 -0.015625 29.449219 -0.0195312 C 30.941406 -0.0234375 32.398438 0.339844 33.574219 1.300781 C 33.59375 1.316406 33.609375 1.328125 33.628906 1.34375 C 34.925781 2.390625 35.789062 3.875 35.992188 5.539062 C 36.007812 5.707031 36.003906 5.875 36.003906 6.042969 C 36.003906 6.105469 36.003906 6.105469 36.003906 6.171875 C 36.003906 6.289062 36.003906 6.402344 36.003906 6.519531 C 36.003906 6.648438 36.003906 6.773438 36.003906 6.898438 C 36.003906 7.148438 36.003906 7.402344 36.003906 7.652344 C 36.003906 7.953125 36.007812 8.253906 36.007812 8.554688 C 36.007812 9.28125 36.007812 10.007812 36.007812 10.734375 C 36.007812 11.078125 36.007812 11.421875 36.007812 11.765625 C 36.007812 12.941406 36.007812 14.117188 36.007812 15.292969 C 36.007812 15.367188 36.007812 15.441406 36.007812 15.515625 C 36.007812 15.589844 36.007812 15.664062 36.007812 15.738281 C 36.007812 15.886719 36.007812 16.035156 36.007812 16.183594 C 36.007812 16.21875 36.007812 16.257812 36.007812 16.296875 C 36.007812 17.488281 36.007812 18.683594 36.011719 19.878906 C 36.011719 21.140625 36.011719 22.402344 36.011719 23.664062 C 36.011719 23.804688 36.011719 23.941406 36.011719 24.082031 C 36.011719 24.113281 36.011719 24.148438 36.011719 24.183594 C 36.011719 24.734375 36.011719 25.28125 36.011719 25.832031 C 36.011719 26.382812 36.011719 26.933594 36.011719 27.488281 C 36.011719 27.816406 36.011719 28.144531 36.011719 28.46875 C 36.011719 28.691406 36.011719 28.910156 36.011719 29.128906 C 36.011719 29.253906 36.011719 29.378906 36.011719 29.503906 C 36.015625 30.15625 35.988281 30.785156 35.796875 31.417969 C 35.789062 31.445312 35.78125 31.476562 35.769531 31.507812 C 35.546875 32.238281 35.207031 32.9375 34.734375 33.539062 C 34.71875 33.558594 34.703125 33.578125 34.6875 33.597656 C 33.640625 34.914062 32.140625 35.785156 30.460938 35.992188 C 30.292969 36.007812 30.125 36.003906 29.957031 36.003906 C 29.914062 36.003906 29.871094 36.003906 29.828125 36.003906 C 29.710938 36.003906 29.597656 36.003906 29.480469 36.003906 C 29.351562 36.003906 29.226562 36.003906 29.101562 36.003906 C 28.851562 36.003906 28.597656 36.003906 28.347656 36.003906 C 28.046875 36.003906 27.746094 36.007812 27.445312 36.007812 C 26.71875 36.007812 25.992188 36.007812 25.265625 36.007812 C 24.921875 36.007812 24.578125 36.007812 24.234375 36.007812 C 23.058594 36.007812 21.882812 36.007812 20.707031 36.007812 C 20.632812 36.007812 20.558594 36.007812 20.484375 36.007812 C 20.410156 36.007812 20.335938 36.007812 20.261719 36.007812 C 20.113281 36.007812 19.964844 36.007812 19.816406 36.007812 C 19.761719 36.007812 19.761719 36.007812 19.703125 36.007812 C 18.511719 36.007812 17.316406 36.007812 16.121094 36.011719 C 14.859375 36.011719 13.597656 36.011719 12.335938 36.011719 C 12.195312 36.011719 12.058594 36.011719 11.917969 36.011719 C 11.886719 36.011719 11.851562 36.011719 11.816406 36.011719 C 11.265625 36.011719 10.71875 36.011719 10.167969 36.011719 C 9.617188 36.011719 9.066406 36.011719 8.511719 36.011719 C 8.183594 36.011719 7.855469 36.011719 7.53125 36.011719 C 7.308594 36.011719 7.089844 36.011719 6.871094 36.011719 C 6.746094 36.011719 6.621094 36.011719 6.496094 36.011719 C 5.84375 36.015625 5.214844 35.988281 4.582031 35.796875 C 4.554688 35.789062 4.523438 35.78125 4.492188 35.769531 C 3.761719 35.546875 3.0625 35.207031 2.460938 34.734375 C 2.441406 34.71875 2.421875 34.703125 2.402344 34.6875 C 1.085938 33.636719 0.214844 32.140625 0.0078125 30.460938 C -0.0078125 30.292969 -0.00390625 30.125 -0.00390625 29.957031 C -0.00390625 29.914062 -0.00390625 29.871094 -0.00390625 29.828125 C -0.00390625 29.710938 -0.00390625 29.597656 -0.00390625 29.480469 C -0.00390625 29.351562 -0.00390625 29.226562 -0.00390625 29.101562 C -0.00390625 28.851562 -0.00390625 28.597656 -0.00390625 28.347656 C -0.00390625 28.046875 -0.0078125 27.746094 -0.0078125 27.445312 C -0.0078125 26.71875 -0.0078125 25.992188 -0.0078125 25.265625 C -0.0078125 24.921875 -0.0078125 24.578125 -0.0078125 24.234375 C -0.0078125 23.058594 -0.0078125 21.882812 -0.0078125 20.707031 C -0.0078125 20.632812 -0.0078125 20.558594 -0.0078125 20.484375 C -0.0078125 20.410156 -0.0078125 20.335938 -0.0078125 20.261719 C -0.0078125 20.113281 -0.0078125 19.964844 -0.0078125 19.816406 C -0.0078125 19.78125 -0.0078125 19.742188 -0.0078125 19.703125 C -0.0078125 18.511719 -0.0078125 17.316406 -0.0117188 16.121094 C -0.0117188 14.859375 -0.0117188 13.597656 -0.0117188 12.335938 C -0.0117188 12.195312 -0.0117188 12.058594 -0.0117188 11.917969 C -0.0117188 11.886719 -0.0117188 11.851562 -0.0117188 11.816406 C -0.0117188 11.265625 -0.0117188 10.71875 -0.0117188 10.167969 C -0.0117188 9.617188 -0.0117188 9.066406 -0.0117188 8.511719 C -0.0117188 8.183594 -0.0117188 7.855469 -0.0117188 7.53125 C -0.0117188 7.308594 -0.0117188 7.089844 -0.0117188 6.871094 C -0.0117188 6.746094 -0.0117188 6.621094 -0.0117188 6.496094 C -0.015625 5.84375 0.0117188 5.21875 0.199219 4.585938 C 0.207031 4.558594 0.21875 4.527344 0.226562 4.496094 C 0.730469 2.835938 1.863281 1.507812 3.378906 0.683594 C 3.941406 0.386719 4.542969 0.191406 5.167969 0.0703125 C 5.199219 0.0625 5.226562 0.0585938 5.257812 0.0507812 C 5.695312 -0.0234375 6.136719 -0.0117188 6.578125 -0.0078125 Z M 6.578125 -0.0078125 "/>
<path style=" stroke:none;fill-rule:nonzero;fill:rgb(97.254902%,21.176471%,30.588236%);fill-opacity:1;" d="M 6.578125 -0.0078125 C 6.703125 -0.0078125 6.828125 -0.0078125 6.957031 -0.0117188 C 7.175781 -0.0117188 7.398438 -0.0117188 7.617188 -0.0117188 C 7.945312 -0.0117188 8.273438 -0.0117188 8.601562 -0.0117188 C 9.222656 -0.0117188 9.839844 -0.0117188 10.460938 -0.0117188 C 10.941406 -0.0117188 11.417969 -0.0117188 11.898438 -0.0117188 C 12.035156 -0.0117188 12.171875 -0.0117188 12.3125 -0.0117188 C 12.347656 -0.0117188 12.378906 -0.0117188 12.414062 -0.0117188 C 13.378906 -0.0117188 14.34375 -0.0117188 15.308594 -0.0117188 C 15.347656 -0.0117188 15.382812 -0.0117188 15.421875 -0.0117188 C 15.605469 -0.0117188 15.789062 -0.0117188 15.972656 -0.0117188 C 16.027344 -0.0117188 16.027344 -0.0117188 16.085938 -0.0117188 C 16.160156 -0.0117188 16.230469 -0.0117188 16.304688 -0.0117188 C 17.457031 -0.0117188 18.609375 -0.0117188 19.757812 -0.015625 C 21.054688 -0.015625 22.347656 -0.015625 23.640625 -0.015625 C 23.777344 -0.015625 23.917969 -0.015625 24.054688 -0.015625 C 24.105469 -0.015625 24.105469 -0.015625 24.160156 -0.015625 C 24.703125 -0.015625 25.25 -0.015625 25.796875 -0.015625 C 26.347656 -0.0195312 26.894531 -0.0195312 27.445312 -0.015625 C 27.769531 -0.015625 28.097656 -0.015625 28.421875 -0.0195312 C 28.640625 -0.0195312 28.859375 -0.0195312 29.078125 -0.0195312 C 29.199219 -0.015625 29.324219 -0.015625 29.449219 -0.0195312 C 30.941406 -0.0234375 32.398438 0.339844 33.574219 1.300781 C 33.59375 1.316406 33.609375 1.328125 33.628906 1.34375 C 34.925781 2.390625 35.789062 3.875 35.992188 5.539062 C 36.007812 5.707031 36.003906 5.875 36.003906 6.042969 C 36.003906 6.105469 36.003906 6.105469 36.003906 6.171875 C 36.003906 6.289062 36.003906 6.402344 36.003906 6.519531 C 36.003906 6.648438 36.003906 6.773438 36.003906 6.898438 C 36.003906 7.148438 36.003906 7.402344 36.003906 7.652344 C 36.003906 7.953125 36.007812 8.253906 36.007812 8.554688 C 36.007812 9.28125 36.007812 10.007812 36.007812 10.734375 C 36.007812 11.078125 36.007812 11.421875 36.007812 11.765625 C 36.007812 12.941406 36.007812 14.117188 36.007812 15.292969 C 36.007812 15.367188 36.007812 15.441406 36.007812 15.515625 C 36.007812 15.589844 36.007812 15.664062 36.007812 15.738281 C 36.007812 15.886719 36.007812 16.035156 36.007812 16.183594 C 36.007812 16.21875 36.007812 16.257812 36.007812 16.296875 C 36.007812 17.488281 36.007812 18.683594 36.011719 19.878906 C 36.011719 21.140625 36.011719 22.402344 36.011719 23.664062 C 36.011719 23.804688 36.011719 23.941406 36.011719 24.082031 C 36.011719 24.113281 36.011719 24.148438 36.011719 24.183594 C 36.011719 24.734375 36.011719 25.28125 36.011719 25.832031 C 36.011719 26.382812 36.011719 26.933594 36.011719 27.488281 C 36.011719 27.816406 36.011719 28.144531 36.011719 28.46875 C 36.011719 28.691406 36.011719 28.910156 36.011719 29.128906 C 36.011719 29.253906 36.011719 29.378906 36.011719 29.503906 C 36.015625 30.15625 35.988281 30.785156 35.796875 31.417969 C 35.789062 31.445312 35.78125 31.476562 35.769531 31.507812 C 35.546875 32.238281 35.207031 32.9375 34.734375 33.539062 C 34.71875 33.558594 34.703125 33.578125 34.6875 33.597656 C 33.671875 34.871094 32.265625 35.699219 30.65625 35.964844 C 30.609375 35.964844 30.5625 35.964844 30.515625 35.964844 C 30.503906 29.6875 30.492188 23.410156 30.480469 16.945312 C 30.148438 17.359375 30.148438 17.359375 29.828125 17.78125 C 29.726562 17.917969 29.625 18.050781 29.523438 18.183594 C 29.503906 18.207031 29.484375 18.234375 29.464844 18.257812 C 29.421875 18.3125 29.382812 18.363281 29.34375 18.414062 C 29.25 18.539062 29.15625 18.660156 29.0625 18.78125 C 29.042969 18.804688 29.027344 18.832031 29.007812 18.855469 C 28.851562 19.058594 28.699219 19.257812 28.546875 19.457031 C 28.320312 19.757812 28.09375 20.054688 27.863281 20.351562 C 27.769531 20.476562 27.675781 20.601562 27.578125 20.722656 C 27.46875 20.871094 27.355469 21.019531 27.242188 21.167969 C 27.03125 21.441406 26.820312 21.714844 26.613281 21.988281 C 26.386719 22.289062 26.160156 22.585938 25.929688 22.882812 C 25.835938 23.007812 25.742188 23.132812 25.644531 23.253906 C 25.535156 23.402344 25.421875 23.550781 25.308594 23.699219 C 25.097656 23.972656 24.886719 24.246094 24.679688 24.519531 C 24.453125 24.820312 24.226562 25.117188 23.996094 25.414062 C 23.921875 25.515625 23.847656 25.613281 23.769531 25.710938 C 23.730469 25.761719 23.695312 25.8125 23.65625 25.859375 C 23.558594 25.988281 23.460938 26.117188 23.363281 26.242188 C 23.269531 26.371094 23.171875 26.496094 23.078125 26.617188 C 23.03125 26.675781 22.988281 26.734375 22.945312 26.789062 C 22.722656 27.078125 22.496094 27.269531 22.175781 27.449219 C 22.015625 27.539062 21.863281 27.644531 21.707031 27.75 C 21.644531 27.792969 21.578125 27.835938 21.511719 27.882812 C 21.476562 27.90625 21.441406 27.925781 21.40625 27.949219 C 21.140625 28.128906 20.875 28.304688 20.605469 28.484375 C 20.539062 28.527344 20.46875 28.574219 20.402344 28.617188 C 20.300781 28.683594 20.203125 28.75 20.101562 28.816406 C 20.070312 28.835938 20.042969 28.855469 20.011719 28.875 C 19.429688 29.257812 19.429688 29.257812 19.195312 29.214844 C 19.101562 29.136719 19.039062 29.074219 18.984375 28.96875 C 18.972656 28.769531 18.996094 28.605469 19.058594 28.414062 C 19.066406 28.390625 19.074219 28.363281 19.082031 28.339844 C 19.171875 28.050781 19.265625 27.761719 19.363281 27.476562 C 19.417969 27.316406 19.472656 27.152344 19.527344 26.992188 C 19.535156 26.960938 19.546875 26.929688 19.558594 26.894531 C 19.6875 26.511719 19.8125 26.125 19.933594 25.742188 C 19.945312 25.703125 19.957031 25.664062 19.972656 25.625 C 19.992188 25.5625 20.011719 25.5 20.027344 25.433594 C 20.132812 25.089844 20.371094 24.820312 20.585938 24.539062 C 20.609375 24.507812 20.636719 24.476562 20.660156 24.441406 C 20.710938 24.375 20.761719 24.3125 20.8125 24.246094 C 20.894531 24.136719 20.980469 24.027344 21.0625 23.917969 C 21.117188 23.84375 21.171875 23.773438 21.230469 23.699219 C 21.34375 23.550781 21.457031 23.402344 21.566406 23.253906 C 21.679688 23.109375 21.792969 22.960938 21.90625 22.8125 C 22.117188 22.539062 22.328125 22.265625 22.535156 21.988281 C 22.761719 21.691406 22.988281 21.394531 23.21875 21.097656 C 23.3125 20.972656 23.40625 20.847656 23.5 20.722656 C 23.613281 20.578125 23.726562 20.429688 23.839844 20.28125 C 24.050781 20.007812 24.261719 19.734375 24.46875 19.457031 C 24.695312 19.160156 24.921875 18.863281 25.152344 18.566406 C 25.246094 18.441406 25.339844 18.316406 25.433594 18.191406 C 25.546875 18.046875 25.660156 17.898438 25.773438 17.75 C 25.984375 17.476562 26.195312 17.203125 26.402344 16.925781 C 26.628906 16.628906 26.855469 16.332031 27.085938 16.035156 C 27.179688 15.910156 27.273438 15.785156 27.367188 15.660156 C 27.480469 15.515625 27.59375 15.367188 27.707031 15.21875 C 27.917969 14.945312 28.128906 14.671875 28.335938 14.394531 C 28.5625 14.097656 28.789062 13.800781 29.019531 13.503906 C 29.074219 13.429688 29.132812 13.355469 29.1875 13.28125 C 29.207031 13.257812 29.226562 13.230469 29.246094 13.207031 C 29.285156 13.15625 29.320312 13.105469 29.359375 13.054688 C 29.453125 12.933594 29.550781 12.808594 29.644531 12.683594 C 31.523438 10.238281 30.484375 10.972656 30.515625 5.554688 C 22.253906 5.554688 13.996094 5.554688 5.484375 5.554688 C 5.484375 15.589844 5.484375 25.625 5.484375 35.964844 C 4.394531 35.855469 3.316406 35.417969 2.460938 34.734375 C 2.441406 34.71875 2.421875 34.703125 2.402344 34.691406 C 1.085938 33.636719 0.214844 32.140625 0.0078125 30.460938 C -0.0078125 30.292969 -0.00390625 30.125 -0.00390625 29.957031 C -0.00390625 29.914062 -0.00390625 29.871094 -0.00390625 29.828125 C -0.00390625 29.710938 -0.00390625 29.597656 -0.00390625 29.480469 C -0.00390625 29.351562 -0.00390625 29.226562 -0.00390625 29.101562 C -0.00390625 28.851562 -0.00390625 28.597656 -0.00390625 28.347656 C -0.00390625 28.046875 -0.0078125 27.746094 -0.0078125 27.445312 C -0.0078125 26.71875 -0.0078125 25.992188 -0.0078125 25.265625 C -0.0078125 24.921875 -0.0078125 24.578125 -0.0078125 24.234375 C -0.0078125 23.058594 -0.0078125 21.882812 -0.0078125 20.707031 C -0.0078125 20.632812 -0.0078125 20.558594 -0.0078125 20.484375 C -0.0078125 20.410156 -0.0078125 20.335938 -0.0078125 20.261719 C -0.0078125 20.113281 -0.0078125 19.964844 -0.0078125 19.816406 C -0.0078125 19.78125 -0.0078125 19.742188 -0.0078125 19.703125 C -0.0078125 18.511719 -0.0078125 17.316406 -0.0117188 16.121094 C -0.0117188 14.859375 -0.0117188 13.597656 -0.0117188 12.335938 C -0.0117188 12.195312 -0.0117188 12.058594 -0.0117188 11.917969 C -0.0117188 11.886719 -0.0117188 11.851562 -0.0117188 11.816406 C -0.0117188 11.265625 -0.0117188 10.71875 -0.0117188 10.167969 C -0.0117188 9.617188 -0.0117188 9.066406 -0.0117188 8.511719 C -0.0117188 8.183594 -0.0117188 7.855469 -0.0117188 7.53125 C -0.0117188 7.308594 -0.0117188 7.089844 -0.0117188 6.871094 C -0.0117188 6.746094 -0.0117188 6.621094 -0.0117188 6.496094 C -0.015625 5.84375 0.0117188 5.21875 0.199219 4.585938 C 0.207031 4.558594 0.21875 4.527344 0.226562 4.496094 C 0.730469 2.835938 1.863281 1.507812 3.378906 0.683594 C 3.941406 0.386719 4.542969 0.191406 5.167969 0.0703125 C 5.199219 0.0625 5.226562 0.0585938 5.257812 0.0507812 C 5.695312 -0.0234375 6.136719 -0.0117188 6.578125 -0.0078125 Z M 6.578125 -0.0078125 "/>
<path style=" stroke:none;fill-rule:nonzero;fill:rgb(19.607843%,19.607843%,19.607843%);fill-opacity:1;" d="M 33.746094 9.660156 C 34.164062 9.945312 34.4375 10.300781 34.558594 10.792969 C 34.613281 11.347656 34.464844 11.742188 34.113281 12.175781 C 34.023438 12.289062 33.933594 12.40625 33.847656 12.523438 C 33.808594 12.574219 33.769531 12.625 33.730469 12.675781 C 33.613281 12.828125 33.496094 12.980469 33.382812 13.132812 C 33.269531 13.277344 33.15625 13.425781 33.042969 13.574219 C 32.832031 13.847656 32.621094 14.121094 32.414062 14.398438 C 32.148438 14.742188 31.886719 15.089844 31.621094 15.433594 C 31.394531 15.734375 31.164062 16.03125 30.9375 16.328125 C 30.710938 16.628906 30.484375 16.925781 30.253906 17.222656 C 30.160156 17.347656 30.066406 17.472656 29.96875 17.59375 C 29.933594 17.644531 29.894531 17.695312 29.855469 17.746094 C 29.835938 17.769531 29.820312 17.792969 29.800781 17.820312 C 29.628906 18.042969 29.628906 18.042969 29.570312 18.117188 C 29.53125 18.167969 29.496094 18.21875 29.457031 18.269531 C 29.363281 18.390625 29.269531 18.515625 29.175781 18.636719 C 28.964844 18.910156 28.753906 19.183594 28.546875 19.460938 C 28.320312 19.757812 28.09375 20.054688 27.863281 20.351562 C 27.769531 20.476562 27.675781 20.601562 27.578125 20.726562 C 27.46875 20.871094 27.355469 21.019531 27.242188 21.167969 C 27.03125 21.441406 26.820312 21.714844 26.613281 21.992188 C 26.386719 22.289062 26.160156 22.585938 25.929688 22.882812 C 25.835938 23.007812 25.742188 23.132812 25.648438 23.257812 C 25.535156 23.402344 25.421875 23.550781 25.308594 23.699219 C 25.097656 23.972656 24.886719 24.246094 24.679688 24.523438 C 24.453125 24.820312 24.226562 25.117188 23.996094 25.414062 C 23.921875 25.515625 23.847656 25.613281 23.769531 25.710938 C 23.730469 25.761719 23.695312 25.8125 23.65625 25.859375 C 23.558594 25.988281 23.460938 26.117188 23.363281 26.242188 C 23.269531 26.371094 23.171875 26.496094 23.078125 26.617188 C 23.03125 26.675781 22.988281 26.734375 22.945312 26.789062 C 22.722656 27.078125 22.496094 27.269531 22.175781 27.449219 C 22.015625 27.539062 21.863281 27.644531 21.707031 27.75 C 21.644531 27.792969 21.578125 27.835938 21.511719 27.882812 C 21.460938 27.914062 21.460938 27.914062 21.40625 27.949219 C 21.140625 28.128906 20.875 28.304688 20.605469 28.484375 C 20.539062 28.527344 20.46875 28.574219 20.402344 28.617188 C 20.300781 28.683594 20.203125 28.75 20.101562 28.816406 C 20.070312 28.835938 20.042969 28.855469 20.011719 28.875 C 19.429688 29.257812 19.429688 29.257812 19.195312 29.214844 C 19.101562 29.136719 19.039062 29.074219 18.984375 28.96875 C 18.972656 28.769531 18.996094 28.605469 19.058594 28.414062 C 19.066406 28.390625 19.074219 28.363281 19.082031 28.339844 C 19.171875 28.050781 19.265625 27.761719 19.363281 27.476562 C 19.417969 27.316406 19.472656 27.152344 19.527344 26.992188 C 19.535156 26.960938 19.546875 26.929688 19.558594 26.894531 C 19.6875 26.511719 19.8125 26.125 19.933594 25.742188 C 19.945312 25.703125 19.957031 25.664062 19.972656 25.625 C 19.992188 25.5625 20.011719 25.5 20.027344 25.433594 C 20.132812 25.089844 20.371094 24.820312 20.585938 24.539062 C 20.609375 24.507812 20.636719 24.476562 20.660156 24.441406 C 20.710938 24.375 20.761719 24.3125 20.8125 24.246094 C 20.894531 24.136719 20.980469 24.027344 21.0625 23.917969 C 21.117188 23.84375 21.171875 23.773438 21.230469 23.699219 C 21.34375 23.550781 21.457031 23.402344 21.570312 23.257812 C 21.679688 23.109375 21.792969 22.960938 21.90625 22.8125 C 22.117188 22.539062 22.328125 22.265625 22.535156 21.992188 C 22.761719 21.691406 22.988281 21.394531 23.21875 21.097656 C 23.3125 20.972656 23.40625 20.847656 23.503906 20.726562 C 23.613281 20.578125 23.726562 20.429688 23.839844 20.28125 C 24.050781 20.007812 24.261719 19.734375 24.46875 19.460938 C 24.695312 19.160156 24.921875 18.863281 25.152344 18.566406 C 25.246094 18.441406 25.339844 18.316406 25.4375 18.195312 C 25.546875 18.046875 25.660156 17.898438 25.773438 17.75 C 25.984375 17.476562 26.195312 17.203125 26.402344 16.929688 C 26.628906 16.628906 26.855469 16.332031 27.085938 16.035156 C 27.179688 15.910156 27.273438 15.785156 27.367188 15.664062 C 27.480469 15.515625 27.59375 15.367188 27.707031 15.21875 C 27.917969 14.945312 28.128906 14.671875 28.335938 14.398438 C 28.5625 14.097656 28.789062 13.800781 29.019531 13.503906 C 29.113281 13.378906 29.207031 13.253906 29.304688 13.132812 C 29.414062 12.984375 29.527344 12.835938 29.640625 12.6875 C 29.851562 12.414062 30.0625 12.140625 30.269531 11.867188 C 30.496094 11.566406 30.722656 11.269531 30.953125 10.972656 C 31.03125 10.871094 31.105469 10.769531 31.183594 10.667969 C 31.222656 10.617188 31.261719 10.566406 31.300781 10.515625 C 31.386719 10.402344 31.476562 10.285156 31.5625 10.167969 C 32.078125 9.46875 32.953125 9.183594 33.746094 9.660156 Z M 33.746094 9.660156 "/>
<path style=" stroke:none;fill-rule:nonzero;fill:rgb(99.215686%,99.215686%,99.215686%);fill-opacity:1;" d="M 30.304688 13.042969 C 30.445312 13.0625 30.527344 13.132812 30.636719 13.222656 C 30.675781 13.253906 30.714844 13.285156 30.757812 13.316406 C 30.78125 13.332031 30.800781 13.351562 30.824219 13.371094 C 30.914062 13.4375 31.003906 13.507812 31.09375 13.574219 C 31.144531 13.613281 31.144531 13.613281 31.195312 13.648438 C 31.261719 13.699219 31.328125 13.75 31.394531 13.800781 C 31.441406 13.835938 31.441406 13.835938 31.488281 13.871094 C 31.515625 13.890625 31.542969 13.914062 31.570312 13.933594 C 31.640625 13.992188 31.640625 13.992188 31.710938 14.097656 C 31.390625 14.519531 31.070312 14.941406 30.746094 15.359375 C 30.652344 15.484375 30.558594 15.609375 30.460938 15.734375 C 30.351562 15.878906 30.238281 16.027344 30.125 16.175781 C 29.914062 16.449219 29.703125 16.722656 29.496094 17 C 29.269531 17.296875 29.042969 17.59375 28.8125 17.890625 C 28.71875 18.015625 28.625 18.140625 28.53125 18.265625 C 28.417969 18.410156 28.304688 18.558594 28.191406 18.707031 C 27.980469 18.980469 27.769531 19.253906 27.5625 19.53125 C 27.335938 19.828125 27.109375 20.125 26.878906 20.421875 C 26.785156 20.546875 26.691406 20.671875 26.59375 20.796875 C 26.558594 20.84375 26.519531 20.894531 26.480469 20.945312 C 26.460938 20.96875 26.445312 20.992188 26.425781 21.019531 C 26.253906 21.242188 26.253906 21.242188 26.195312 21.316406 C 26.15625 21.367188 26.121094 21.417969 26.082031 21.46875 C 25.988281 21.589844 25.894531 21.714844 25.800781 21.835938 C 25.589844 22.109375 25.378906 22.382812 25.171875 22.65625 C 24.945312 22.957031 24.71875 23.253906 24.488281 23.550781 C 24.394531 23.675781 24.300781 23.800781 24.203125 23.921875 C 24.09375 24.070312 23.980469 24.21875 23.867188 24.367188 C 23.65625 24.640625 23.445312 24.914062 23.238281 25.1875 C 23.167969 25.28125 23.097656 25.375 23.023438 25.46875 C 22.980469 25.527344 22.9375 25.585938 22.890625 25.644531 C 22.777344 25.792969 22.664062 25.945312 22.546875 26.09375 C 22.503906 26.152344 22.460938 26.207031 22.417969 26.265625 C 22.25 26.480469 22.097656 26.667969 21.832031 26.753906 C 21.554688 26.78125 21.285156 26.792969 21.058594 26.613281 C 20.828125 26.402344 20.707031 26.1875 20.691406 25.875 C 20.683594 25.589844 20.886719 25.351562 21.054688 25.140625 C 21.097656 25.085938 21.136719 25.03125 21.179688 24.980469 C 21.199219 24.953125 21.222656 24.925781 21.242188 24.898438 C 21.339844 24.777344 21.433594 24.652344 21.527344 24.53125 C 21.566406 24.480469 21.601562 24.429688 21.640625 24.382812 C 21.773438 24.207031 21.910156 24.03125 22.042969 23.851562 C 22.308594 23.507812 22.570312 23.160156 22.835938 22.816406 C 23.0625 22.515625 23.292969 22.21875 23.519531 21.921875 C 23.746094 21.621094 23.972656 21.324219 24.203125 21.027344 C 24.296875 20.902344 24.390625 20.777344 24.484375 20.65625 C 24.597656 20.507812 24.710938 20.359375 24.824219 20.210938 C 25.035156 19.9375 25.246094 19.664062 25.453125 19.390625 C 25.679688 19.089844 25.90625 18.792969 26.136719 18.496094 C 26.230469 18.371094 26.324219 18.246094 26.421875 18.125 C 26.53125 17.976562 26.644531 17.828125 26.757812 17.679688 C 26.96875 17.40625 27.179688 17.132812 27.386719 16.859375 C 27.613281 16.558594 27.839844 16.261719 28.070312 15.964844 C 28.164062 15.839844 28.257812 15.714844 28.351562 15.59375 C 28.464844 15.445312 28.578125 15.296875 28.691406 15.148438 C 28.902344 14.875 29.113281 14.601562 29.320312 14.328125 C 30.054688 13.363281 30.054688 13.363281 30.304688 13.042969 Z M 30.304688 13.042969 "/>
<path style=" stroke:none;fill-rule:nonzero;fill:rgb(90.196079%,90.196079%,89.803922%);fill-opacity:1;" d="M 8.648438 31.921875 C 14.796875 31.921875 20.945312 31.921875 27.28125 31.921875 C 27.28125 32.164062 27.28125 32.410156 27.28125 32.660156 C 21.132812 32.660156 14.984375 32.660156 8.648438 32.660156 C 8.648438 32.417969 8.648438 32.171875 8.648438 31.921875 Z M 8.648438 31.921875 "/>
<path style=" stroke:none;fill-rule:nonzero;fill:rgb(90.196079%,90.196079%,89.803922%);fill-opacity:1;" d="M 8.648438 29.25 C 14.796875 29.25 20.945312 29.25 27.28125 29.25 C 27.28125 29.492188 27.28125 29.738281 27.28125 29.988281 C 21.132812 29.988281 14.984375 29.988281 8.648438 29.988281 C 8.648438 29.746094 8.648438 29.5 8.648438 29.25 Z M 8.648438 29.25 "/>
<path style=" stroke:none;fill-rule:nonzero;fill:rgb(89.803922%,89.803922%,89.411765%);fill-opacity:1;" d="M 8.648438 15.785156 C 14.796875 15.785156 20.945312 15.785156 27.28125 15.785156 C 27.234375 15.855469 27.1875 15.925781 27.140625 15.996094 C 27.113281 16.042969 27.085938 16.089844 27.058594 16.136719 C 26.835938 16.507812 26.835938 16.507812 26.644531 16.589844 C 26.425781 16.640625 26.203125 16.628906 25.980469 16.625 C 25.90625 16.625 25.832031 16.625 25.757812 16.625 C 25.550781 16.625 25.347656 16.625 25.140625 16.621094 C 24.921875 16.617188 24.699219 16.617188 24.476562 16.617188 C 24.09375 16.617188 23.710938 16.617188 23.328125 16.613281 C 22.925781 16.609375 22.523438 16.605469 22.121094 16.601562 C 22.085938 16.601562 22.085938 16.601562 22.046875 16.601562 C 21.917969 16.601562 21.792969 16.601562 21.664062 16.601562 C 20.765625 16.597656 19.867188 16.59375 18.964844 16.585938 C 18.09375 16.578125 17.21875 16.574219 16.347656 16.570312 C 16.320312 16.570312 16.292969 16.570312 16.265625 16.570312 C 15.992188 16.566406 15.722656 16.566406 15.453125 16.566406 C 14.902344 16.5625 14.351562 16.558594 13.800781 16.558594 C 13.773438 16.558594 13.75 16.558594 13.722656 16.558594 C 12.03125 16.546875 10.339844 16.535156 8.648438 16.523438 C 8.648438 16.28125 8.648438 16.035156 8.648438 15.785156 Z M 8.648438 15.785156 "/>
<path style=" stroke:none;fill-rule:nonzero;fill:rgb(19.607843%,19.607843%,19.607843%);fill-opacity:1;" d="M 20.496094 8.753906 C 20.902344 8.753906 21.308594 8.753906 21.726562 8.753906 C 21.882812 9.300781 22.019531 9.855469 22.160156 10.40625 C 22.191406 10.53125 22.21875 10.652344 22.25 10.777344 C 22.308594 11.015625 22.371094 11.257812 22.429688 11.496094 C 22.535156 11.113281 22.628906 10.726562 22.722656 10.34375 C 22.734375 10.300781 22.734375 10.300781 22.746094 10.257812 C 22.867188 9.757812 22.984375 9.257812 23.097656 8.753906 C 23.539062 8.753906 23.980469 8.753906 24.433594 8.753906 C 24.433594 10.179688 24.433594 11.609375 24.433594 13.078125 C 24.121094 13.078125 23.808594 13.078125 23.484375 13.078125 C 23.472656 12.160156 23.460938 11.246094 23.449219 10.300781 C 23.328125 10.824219 23.328125 10.824219 23.203125 11.355469 C 23.113281 11.699219 23.113281 11.699219 23.070312 11.851562 C 22.984375 12.179688 22.914062 12.515625 22.835938 12.847656 C 22.820312 12.925781 22.800781 13 22.78125 13.078125 C 22.539062 13.078125 22.292969 13.078125 22.042969 13.078125 C 22.027344 13.011719 22.011719 12.945312 21.996094 12.875 C 21.882812 12.367188 21.769531 11.859375 21.636719 11.359375 C 21.550781 11.019531 21.484375 10.679688 21.410156 10.335938 C 21.398438 11.242188 21.386719 12.144531 21.375 13.078125 C 21.085938 13.078125 20.796875 13.078125 20.496094 13.078125 C 20.496094 11.652344 20.496094 10.222656 20.496094 8.753906 Z M 20.496094 8.753906 "/>
<path style=" stroke:none;fill-rule:nonzero;fill:rgb(89.803922%,89.803922%,89.411765%);fill-opacity:1;" d="M 8.648438 18.492188 C 14.113281 18.492188 19.578125 18.492188 25.207031 18.492188 C 25.136719 18.597656 25.066406 18.699219 24.996094 18.808594 C 24.972656 18.847656 24.953125 18.890625 24.929688 18.929688 C 24.824219 19.105469 24.746094 19.210938 24.546875 19.269531 C 24.375 19.289062 24.203125 19.285156 24.03125 19.28125 C 23.964844 19.28125 23.898438 19.28125 23.832031 19.28125 C 23.652344 19.285156 23.46875 19.28125 23.289062 19.28125 C 23.089844 19.277344 22.894531 19.277344 22.699219 19.277344 C 22.359375 19.277344 22.019531 19.277344 21.675781 19.273438 C 21.183594 19.273438 20.691406 19.269531 20.203125 19.269531 C 19.402344 19.269531 18.605469 19.265625 17.804688 19.261719 C 17.03125 19.257812 16.253906 19.253906 15.480469 19.253906 C 15.445312 19.253906 15.445312 19.253906 15.40625 19.253906 C 15.167969 19.253906 14.925781 19.253906 14.6875 19.25 C 12.675781 19.246094 10.660156 19.238281 8.648438 19.230469 C 8.648438 18.988281 8.648438 18.742188 8.648438 18.492188 Z M 8.648438 18.492188 "/>
<path style=" stroke:none;fill-rule:nonzero;fill:rgb(89.803922%,89.803922%,89.411765%);fill-opacity:1;" d="M 8.648438 21.164062 C 13.441406 21.164062 18.230469 21.164062 23.167969 21.164062 C 23.097656 21.269531 23.027344 21.371094 22.957031 21.480469 C 22.929688 21.523438 22.90625 21.566406 22.878906 21.609375 C 22.683594 21.910156 22.683594 21.910156 22.480469 21.980469 C 22.332031 21.996094 22.183594 21.996094 22.035156 21.992188 C 21.976562 21.992188 21.917969 21.992188 21.859375 21.992188 C 21.703125 21.992188 21.542969 21.992188 21.382812 21.988281 C 21.214844 21.984375 21.042969 21.984375 20.871094 21.984375 C 20.574219 21.984375 20.28125 21.984375 19.984375 21.980469 C 19.554688 21.972656 19.128906 21.972656 18.699219 21.96875 C 18.003906 21.96875 17.308594 21.964844 16.617188 21.957031 C 15.941406 21.949219 15.265625 21.945312 14.59375 21.941406 C 14.550781 21.941406 14.507812 21.941406 14.464844 21.941406 C 14.257812 21.941406 14.046875 21.941406 13.839844 21.9375 C 12.109375 21.929688 10.378906 21.917969 8.648438 21.902344 C 8.648438 21.660156 8.648438 21.414062 8.648438 21.164062 Z M 8.648438 21.164062 "/>
<path style=" stroke:none;fill-rule:nonzero;fill:rgb(19.607843%,19.607843%,19.607843%);fill-opacity:1;" d="M 8.683594 8.753906 C 10.703125 8.753906 10.703125 8.753906 11.046875 9.042969 C 11.371094 9.378906 11.410156 9.792969 11.402344 10.242188 C 11.371094 10.570312 11.21875 10.855469 10.96875 11.074219 C 10.921875 11.097656 10.875 11.121094 10.828125 11.144531 C 10.894531 11.375 10.96875 11.597656 11.058594 11.824219 C 11.074219 11.867188 11.074219 11.867188 11.089844 11.914062 C 11.128906 12.003906 11.164062 12.097656 11.199219 12.191406 C 11.234375 12.285156 11.273438 12.375 11.308594 12.46875 C 11.332031 12.527344 11.351562 12.585938 11.375 12.644531 C 11.390625 12.683594 11.390625 12.683594 11.40625 12.722656 C 11.414062 12.746094 11.425781 12.769531 11.433594 12.792969 C 11.46875 12.886719 11.5 12.984375 11.53125 13.078125 C 11.183594 13.078125 10.835938 13.078125 10.476562 13.078125 C 10.394531 12.84375 10.316406 12.609375 10.234375 12.375 C 10.210938 12.296875 10.183594 12.214844 10.15625 12.136719 C 10.113281 12.023438 10.074219 11.910156 10.039062 11.792969 C 10.023438 11.757812 10.011719 11.722656 10 11.6875 C 9.988281 11.652344 9.976562 11.621094 9.964844 11.585938 C 9.957031 11.554688 9.945312 11.527344 9.933594 11.496094 C 9.914062 11.425781 9.914062 11.425781 9.914062 11.355469 C 9.820312 11.355469 9.726562 11.355469 9.632812 11.355469 C 9.632812 11.925781 9.632812 12.492188 9.632812 13.078125 C 9.320312 13.078125 9.007812 13.078125 8.683594 13.078125 C 8.683594 11.652344 8.683594 10.222656 8.683594 8.753906 Z M 8.683594 8.753906 "/>
<path style=" stroke:none;fill-rule:nonzero;fill:rgb(89.803922%,89.803922%,89.411765%);fill-opacity:1;" d="M 8.648438 23.871094 C 12.753906 23.871094 16.863281 23.871094 21.09375 23.871094 C 20.996094 24.042969 20.914062 24.171875 20.789062 24.320312 C 20.710938 24.414062 20.636719 24.507812 20.566406 24.609375 C 20.480469 24.621094 20.480469 24.621094 20.371094 24.621094 C 20.308594 24.621094 20.308594 24.621094 20.246094 24.621094 C 20.199219 24.621094 20.152344 24.621094 20.105469 24.621094 C 20.054688 24.621094 20.007812 24.621094 19.957031 24.621094 C 19.820312 24.621094 19.6875 24.621094 19.550781 24.621094 C 19.40625 24.621094 19.257812 24.621094 19.113281 24.621094 C 18.859375 24.621094 18.605469 24.621094 18.351562 24.621094 C 17.984375 24.621094 17.617188 24.621094 17.253906 24.621094 C 16.65625 24.617188 16.0625 24.617188 15.46875 24.617188 C 14.890625 24.617188 14.3125 24.617188 13.738281 24.613281 C 13.699219 24.613281 13.664062 24.613281 13.628906 24.613281 C 13.449219 24.613281 13.273438 24.613281 13.09375 24.613281 C 11.613281 24.613281 10.128906 24.613281 8.648438 24.609375 C 8.648438 24.367188 8.648438 24.121094 8.648438 23.871094 Z M 8.648438 23.871094 "/>
<path style=" stroke:none;fill-rule:nonzero;fill:rgb(20%,20%,20%);fill-opacity:1;" d="M 17.015625 8.753906 C 17.339844 8.753906 17.664062 8.753906 18 8.753906 C 18 8.839844 18 8.929688 18 9.019531 C 18.003906 9.308594 18.003906 9.601562 18.007812 9.890625 C 18.011719 10.066406 18.011719 10.242188 18.011719 10.417969 C 18.011719 10.589844 18.015625 10.757812 18.015625 10.929688 C 18.015625 10.992188 18.015625 11.058594 18.015625 11.121094 C 18.011719 11.65625 18.011719 11.65625 18.195312 12.152344 C 18.335938 12.230469 18.476562 12.222656 18.632812 12.199219 C 18.742188 12.148438 18.785156 12.105469 18.839844 11.996094 C 18.945312 11.679688 18.929688 11.355469 18.933594 11.027344 C 18.933594 10.960938 18.933594 10.894531 18.933594 10.828125 C 18.9375 10.65625 18.9375 10.484375 18.9375 10.3125 C 18.9375 10.136719 18.941406 9.960938 18.941406 9.785156 C 18.945312 9.441406 18.945312 9.097656 18.949219 8.753906 C 19.273438 8.753906 19.597656 8.753906 19.933594 8.753906 C 19.9375 9.144531 19.9375 9.535156 19.9375 9.925781 C 19.941406 10.109375 19.941406 10.289062 19.941406 10.472656 C 19.941406 10.648438 19.941406 10.824219 19.945312 10.996094 C 19.945312 11.066406 19.945312 11.132812 19.945312 11.199219 C 19.949219 11.777344 19.921875 12.378906 19.5 12.828125 C 19.117188 13.175781 18.675781 13.214844 18.179688 13.191406 C 17.824219 13.15625 17.539062 12.957031 17.308594 12.695312 C 16.988281 12.246094 16.992188 11.726562 17 11.199219 C 17 11.128906 17 11.054688 17 10.984375 C 17 10.800781 17 10.617188 17.003906 10.429688 C 17.003906 10.242188 17.007812 10.054688 17.007812 9.863281 C 17.007812 9.492188 17.011719 9.125 17.015625 8.753906 Z M 17.015625 8.753906 "/>
<path style=" stroke:none;fill-rule:nonzero;fill:rgb(89.803922%,89.803922%,89.411765%);fill-opacity:1;" d="M 8.648438 26.542969 C 12.292969 26.542969 15.933594 26.542969 19.6875 26.542969 C 19.582031 26.929688 19.582031 26.929688 19.441406 27.28125 C 15.878906 27.28125 12.316406 27.28125 8.648438 27.28125 C 8.648438 27.039062 8.648438 26.792969 8.648438 26.542969 Z M 8.648438 26.542969 "/>
<path style=" stroke:none;fill-rule:nonzero;fill:rgb(19.607843%,19.607843%,19.607843%);fill-opacity:1;" d="M 16.453125 8.824219 C 16.546875 8.890625 16.617188 8.953125 16.699219 9.035156 C 16.640625 9.210938 16.539062 9.351562 16.429688 9.503906 C 16.414062 9.527344 16.394531 9.554688 16.375 9.582031 C 16.332031 9.644531 16.285156 9.710938 16.242188 9.773438 C 16.152344 9.730469 16.078125 9.6875 15.992188 9.628906 C 15.828125 9.535156 15.65625 9.535156 15.46875 9.5625 C 15.363281 9.625 15.3125 9.664062 15.257812 9.773438 C 15.25 9.84375 15.25 9.84375 15.25 9.925781 C 15.246094 9.964844 15.246094 9.964844 15.246094 10.007812 C 15.261719 10.117188 15.296875 10.175781 15.363281 10.265625 C 15.460938 10.339844 15.460938 10.339844 15.578125 10.402344 C 15.597656 10.417969 15.617188 10.429688 15.636719 10.441406 C 15.699219 10.476562 15.757812 10.511719 15.820312 10.546875 C 15.886719 10.585938 15.949219 10.621094 16.015625 10.660156 C 16.039062 10.675781 16.066406 10.691406 16.09375 10.707031 C 16.261719 10.8125 16.371094 10.917969 16.476562 11.085938 C 16.496094 11.121094 16.519531 11.152344 16.539062 11.183594 C 16.730469 11.539062 16.699219 11.9375 16.589844 12.316406 C 16.46875 12.675781 16.273438 12.894531 15.941406 13.078125 C 15.582031 13.234375 15.101562 13.253906 14.726562 13.125 C 14.503906 13.027344 14.265625 12.910156 14.097656 12.726562 C 14.15625 12.550781 14.257812 12.410156 14.367188 12.257812 C 14.394531 12.21875 14.394531 12.21875 14.421875 12.179688 C 14.464844 12.117188 14.511719 12.050781 14.554688 11.988281 C 14.632812 12.027344 14.714844 12.070312 14.792969 12.113281 C 15.082031 12.269531 15.082031 12.269531 15.398438 12.269531 C 15.515625 12.210938 15.585938 12.164062 15.660156 12.050781 C 15.691406 11.902344 15.695312 11.78125 15.644531 11.636719 C 15.496094 11.429688 15.253906 11.332031 15.035156 11.21875 C 14.722656 11.054688 14.46875 10.847656 14.34375 10.511719 C 14.332031 10.484375 14.320312 10.460938 14.304688 10.433594 C 14.261719 10.304688 14.261719 10.179688 14.265625 10.042969 C 14.265625 10.019531 14.265625 9.992188 14.265625 9.96875 C 14.265625 9.597656 14.382812 9.261719 14.632812 8.988281 C 15.109375 8.550781 15.898438 8.511719 16.453125 8.824219 Z M 16.453125 8.824219 "/>
<path style=" stroke:none;fill-rule:nonzero;fill:rgb(19.215687%,19.215687%,19.215687%);fill-opacity:1;" d="M 25.03125 8.753906 C 25.714844 8.753906 26.398438 8.753906 27.105469 8.753906 C 27.105469 9.03125 27.105469 9.3125 27.105469 9.597656 C 26.722656 9.597656 26.339844 9.597656 25.945312 9.597656 C 25.945312 9.886719 25.945312 10.179688 25.945312 10.476562 C 26.292969 10.476562 26.640625 10.476562 27 10.476562 C 27 10.730469 27 10.988281 27 11.25 C 26.652344 11.25 26.304688 11.25 25.945312 11.25 C 25.945312 11.5625 25.945312 11.875 25.945312 12.199219 C 26.351562 12.199219 26.757812 12.199219 27.175781 12.199219 C 27.175781 12.488281 27.175781 12.78125 27.175781 13.078125 C 26.46875 13.078125 25.761719 13.078125 25.03125 13.078125 C 25.03125 11.652344 25.03125 10.222656 25.03125 8.753906 Z M 25.03125 8.753906 "/>
<path style=" stroke:none;fill-rule:nonzero;fill:rgb(19.215687%,19.215687%,19.215687%);fill-opacity:1;" d="M 11.847656 8.753906 C 12.53125 8.753906 13.214844 8.753906 13.921875 8.753906 C 13.921875 9.03125 13.921875 9.3125 13.921875 9.597656 C 13.539062 9.597656 13.15625 9.597656 12.761719 9.597656 C 12.761719 9.886719 12.761719 10.179688 12.761719 10.476562 C 13.109375 10.476562 13.457031 10.476562 13.816406 10.476562 C 13.816406 10.730469 13.816406 10.988281 13.816406 11.25 C 13.46875 11.25 13.121094 11.25 12.761719 11.25 C 12.761719 11.5625 12.761719 11.875 12.761719 12.199219 C 13.167969 12.199219 13.574219 12.199219 13.992188 12.199219 C 13.992188 12.488281 13.992188 12.78125 13.992188 13.078125 C 13.285156 13.078125 12.578125 13.078125 11.847656 13.078125 C 11.847656 11.652344 11.847656 10.222656 11.847656 8.753906 Z M 11.847656 8.753906 "/>
<path style=" stroke:none;fill-rule:nonzero;fill:rgb(99.215686%,99.215686%,99.215686%);fill-opacity:1;" d="M 33.351562 10.253906 C 33.574219 10.382812 33.746094 10.582031 33.820312 10.828125 C 33.867188 11.167969 33.753906 11.425781 33.554688 11.691406 C 33.535156 11.71875 33.515625 11.746094 33.492188 11.773438 C 33.472656 11.800781 33.449219 11.832031 33.425781 11.859375 C 33.261719 12.082031 33.089844 12.300781 32.917969 12.519531 C 32.804688 12.664062 32.695312 12.808594 32.585938 12.957031 C 32.5625 12.988281 32.539062 13.023438 32.511719 13.054688 C 32.46875 13.121094 32.421875 13.183594 32.375 13.246094 C 32.34375 13.289062 32.34375 13.289062 32.3125 13.332031 C 32.292969 13.359375 32.273438 13.382812 32.253906 13.410156 C 32.238281 13.429688 32.222656 13.445312 32.203125 13.464844 C 32.050781 13.464844 31.964844 13.375 31.847656 13.285156 C 31.824219 13.265625 31.800781 13.246094 31.777344 13.226562 C 31.695312 13.167969 31.613281 13.105469 31.535156 13.042969 C 31.507812 13.019531 31.476562 13 31.449219 12.976562 C 31.335938 12.886719 31.222656 12.800781 31.109375 12.710938 C 31.082031 12.691406 31.058594 12.671875 31.03125 12.652344 C 31.007812 12.632812 30.988281 12.617188 30.964844 12.597656 C 30.910156 12.554688 30.851562 12.519531 30.796875 12.480469 C 30.816406 12.367188 30.855469 12.296875 30.929688 12.207031 C 30.957031 12.167969 30.957031 12.167969 30.988281 12.132812 C 31.011719 12.105469 31.03125 12.078125 31.054688 12.050781 C 31.097656 11.992188 31.144531 11.933594 31.191406 11.878906 C 31.210938 11.847656 31.234375 11.820312 31.257812 11.789062 C 31.351562 11.671875 31.445312 11.546875 31.535156 11.425781 C 31.75 11.140625 31.96875 10.855469 32.1875 10.574219 C 32.230469 10.523438 32.273438 10.46875 32.3125 10.410156 C 32.585938 10.097656 32.996094 10.09375 33.351562 10.253906 Z M 33.351562 10.253906 "/>
<path style=" stroke:none;fill-rule:nonzero;fill:rgb(89.803922%,89.803922%,89.411765%);fill-opacity:1;" d="M 23.5 26.515625 C 23.542969 26.515625 23.582031 26.515625 23.625 26.515625 C 23.761719 26.515625 23.894531 26.515625 24.03125 26.519531 C 24.125 26.519531 24.21875 26.519531 24.3125 26.519531 C 24.53125 26.519531 24.753906 26.523438 24.972656 26.523438 C 25.226562 26.527344 25.476562 26.53125 25.730469 26.53125 C 26.246094 26.53125 26.765625 26.539062 27.28125 26.542969 C 27.28125 26.785156 27.28125 27.03125 27.28125 27.28125 C 25.691406 27.28125 24.101562 27.28125 22.464844 27.28125 C 22.523438 27.222656 22.582031 27.164062 22.640625 27.105469 C 22.6875 27.054688 22.734375 27.003906 22.78125 26.953125 C 22.804688 26.925781 22.828125 26.902344 22.847656 26.875 C 22.921875 26.796875 22.921875 26.796875 22.953125 26.726562 C 23.082031 26.492188 23.25 26.507812 23.5 26.515625 Z M 23.5 26.515625 "/>
<path style=" stroke:none;fill-rule:nonzero;fill:rgb(89.803922%,89.803922%,89.411765%);fill-opacity:1;" d="M 25.652344 23.816406 C 25.699219 23.816406 25.746094 23.820312 25.792969 23.820312 C 25.917969 23.824219 26.042969 23.828125 26.164062 23.832031 C 26.289062 23.839844 26.414062 23.839844 26.542969 23.84375 C 26.789062 23.851562 27.035156 23.859375 27.28125 23.871094 C 27.28125 24.113281 27.28125 24.359375 27.28125 24.609375 C 27.160156 24.609375 27.160156 24.609375 27.039062 24.613281 C 26.777344 24.613281 26.515625 24.617188 26.253906 24.621094 C 26.09375 24.625 25.933594 24.625 25.777344 24.625 C 25.621094 24.628906 25.46875 24.628906 25.316406 24.632812 C 25.257812 24.632812 25.199219 24.632812 25.140625 24.632812 C 25.058594 24.636719 24.976562 24.636719 24.894531 24.636719 C 24.871094 24.636719 24.847656 24.636719 24.820312 24.636719 C 24.691406 24.636719 24.691406 24.636719 24.574219 24.679688 C 24.632812 24.550781 24.710938 24.449219 24.792969 24.335938 C 24.820312 24.300781 24.847656 24.269531 24.875 24.230469 C 24.886719 24.214844 24.902344 24.195312 24.917969 24.175781 C 24.964844 24.117188 24.964844 24.117188 25 24.046875 C 25.15625 23.769531 25.363281 23.800781 25.652344 23.816406 Z M 25.652344 23.816406 "/>
<path style=" stroke:none;fill-rule:nonzero;fill:rgb(98.823529%,98.823529%,98.823529%);fill-opacity:1;" d="M 9.632812 9.5625 C 10.089844 9.5625 10.089844 9.5625 10.265625 9.667969 C 10.410156 9.835938 10.453125 9.929688 10.449219 10.148438 C 10.433594 10.320312 10.375 10.441406 10.25 10.558594 C 10.03125 10.699219 9.9375 10.652344 9.632812 10.652344 C 9.632812 10.292969 9.632812 9.933594 9.632812 9.5625 Z M 9.632812 9.5625 "/>
<path style=" stroke:none;fill-rule:nonzero;fill:rgb(89.019608%,89.019608%,88.627452%);fill-opacity:1;" d="M 27.210938 21.164062 C 27.234375 21.164062 27.257812 21.164062 27.28125 21.164062 C 27.28125 21.40625 27.28125 21.652344 27.28125 21.902344 C 27.007812 21.914062 27.007812 21.914062 26.921875 21.917969 C 26.789062 21.925781 26.722656 21.933594 26.613281 22.007812 C 26.660156 21.910156 26.710938 21.824219 26.777344 21.734375 C 26.804688 21.699219 26.804688 21.699219 26.835938 21.660156 C 26.855469 21.636719 26.871094 21.613281 26.890625 21.585938 C 26.910156 21.5625 26.929688 21.535156 26.949219 21.511719 C 26.984375 21.464844 27.019531 21.417969 27.054688 21.371094 C 27.089844 21.324219 27.125 21.273438 27.160156 21.226562 C 27.175781 21.207031 27.195312 21.183594 27.210938 21.164062 Z M 27.210938 21.164062 "/>
</g>
</svg>
